<svg xmlns="http://www.w3.org/2000/svg" width="24.398" height="30.312" viewBox="0 0 24.398 30.312">
  <g id="icon-record" transform="translate(-3.75 -1.75)">
    <path id="Path_24" data-name="Path 24" d="M9.076,4.716A4.068,4.068,0,0,1,12.991,1.75h5.915a4.069,4.069,0,0,1,3.915,2.966,5.011,5.011,0,0,1,.5.038A5.545,5.545,0,0,1,28.1,9.529a11.174,11.174,0,0,1,.047,1.377V22.163a40.751,40.751,0,0,1-.172,4.934,5.506,5.506,0,0,1-1.452,3.342,5.506,5.506,0,0,1-3.342,1.452,40.75,40.75,0,0,1-4.934.172h-4.6a40.75,40.75,0,0,1-4.934-.172,5.506,5.506,0,0,1-3.342-1.452A5.5,5.5,0,0,1,3.923,27.1a40.4,40.4,0,0,1-.173-4.934V10.906A11.174,11.174,0,0,1,3.8,9.529,5.545,5.545,0,0,1,8.572,4.755q.25-.031.5-.038ZM8.939,6.944A3.327,3.327,0,0,0,6,9.817a10.858,10.858,0,0,0-.028,1.174v11.09A39.928,39.928,0,0,0,6.12,26.8a3.343,3.343,0,0,0,.822,2.069,3.335,3.335,0,0,0,2.07.822,39.874,39.874,0,0,0,4.718.152h4.436a39.915,39.915,0,0,0,4.72-.152,3.343,3.343,0,0,0,2.069-.822,3.335,3.335,0,0,0,.822-2.07,39.887,39.887,0,0,0,.152-4.718V10.991a10.277,10.277,0,0,0-.03-1.174,3.327,3.327,0,0,0-2.941-2.873c-.009.231-.024.445-.05.642a2.555,2.555,0,0,1-.695,1.538,2.555,2.555,0,0,1-1.538.695,13.871,13.871,0,0,1-1.7.064H12.925a13.847,13.847,0,0,1-1.7-.064,2.555,2.555,0,0,1-1.538-.695,2.555,2.555,0,0,1-.695-1.538q-.04-.32-.05-.642Zm4.053-2.976a1.849,1.849,0,0,0-1.848,1.848,12.842,12.842,0,0,0,.044,1.474,1.044,1.044,0,0,0,.062.262v0h0a1.044,1.044,0,0,0,.262.062,12.842,12.842,0,0,0,1.474.044h5.915A12.842,12.842,0,0,0,20.38,7.62a1.042,1.042,0,0,0,.262-.062h0v0a1.051,1.051,0,0,0,.062-.262,12.843,12.843,0,0,0,.044-1.474,1.849,1.849,0,0,0-1.848-1.848Z" transform="translate(0 0)" fill="#fff" fill-rule="evenodd"/>
    <path id="Path_25" data-name="Path 25" d="M7.25,10.359A1.109,1.109,0,0,1,8.359,9.25H20.188a1.109,1.109,0,0,1,0,2.218H8.359A1.109,1.109,0,0,1,7.25,10.359Zm0,5.175a1.109,1.109,0,0,1,1.109-1.109H20.188a1.109,1.109,0,0,1,0,2.218H8.359A1.109,1.109,0,0,1,7.25,15.534ZM8.359,19.6a1.109,1.109,0,1,0,0,2.218h8.133a1.109,1.109,0,0,0,0-2.218Z" transform="translate(1.675 3.59)" fill="#fff"/>
  </g>
</svg>
