<svg xmlns="http://www.w3.org/2000/svg" width="21" height="20.997" viewBox="0 0 21 20.997">
  <g id="icon-1" transform="translate(-44 -163)">
    <path id="Rectangle_2" data-name="Rectangle 2" d="M1.551.055l5.9-.043A1.279,1.279,0,0,1,8.06.164a1.6,1.6,0,0,1,.5.425,2.081,2.081,0,0,1,.338.633A2.456,2.456,0,0,1,9.022,2V6.4a2.463,2.463,0,0,1-.124.778,2.1,2.1,0,0,1-.338.635,1.615,1.615,0,0,1-.5.428,1.285,1.285,0,0,1-.612.156l-5.9-.005a1.264,1.264,0,0,1-.6-.156,1.6,1.6,0,0,1-.493-.425,2.086,2.086,0,0,1-.332-.63A2.46,2.46,0,0,1,0,6.407V2.048a2.467,2.467,0,0,1,.122-.772A2.1,2.1,0,0,1,.454.643,1.611,1.611,0,0,1,.947.215,1.27,1.27,0,0,1,1.551.055Z" transform="translate(47.006 171.397)" fill="#ddf3cc"/>
    <path id="Path_5" data-name="Path 5" d="M7.439,9.951a.8.8,0,0,1,.8.794h0v1.043H9.3a.8.8,0,0,1,.764.368.789.789,0,0,1,0,.843.8.8,0,0,1-.764.368H8.238v1.052a.806.806,0,0,1-.8.794h0a.8.8,0,0,1-.8-.794h0V13.366H5.579A.8.8,0,0,1,4.815,13a.789.789,0,0,1,0-.843.8.8,0,0,1,.764-.368h1.06V10.745l.007-.108A.8.8,0,0,1,7.439,9.951Zm7.439,3.9a.8.8,0,0,1,.865-.175.992.992,0,0,1,.26.175.781.781,0,0,1,0,1.107.794.794,0,0,1-1.115,0A.781.781,0,0,1,14.877,13.846Zm-1.525-3.692a.786.786,0,0,1,.6,0,.931.931,0,0,1,.27.175.791.791,0,0,1,.232.554.806.806,0,0,1-.056.3.647.647,0,0,1-.177.259.813.813,0,0,1-1.116,0,.762.762,0,0,1,0-1.117A.716.716,0,0,1,13.352,10.154ZM21,9.992a6.031,6.031,0,0,0-6.179-5.685.732.732,0,0,0,.019,1.465,4.479,4.479,0,0,1,4.7,4.282c.005.1.006.194,0,.31v4.556A4.482,4.482,0,0,1,15.15,19.5c-.1,0-.2,0-.337,0-2.914.049-5.815.049-8.669,0a4.475,4.475,0,0,1-4.675-4.281c0-.1-.005-.2,0-.312V10.347A4.486,4.486,0,0,1,5.853,5.769c.1,0,.2,0,.323,0H11.1a.733.733,0,0,0,.733-.733V4.057A2.79,2.79,0,0,0,9.052,1.309H7.986a.584.584,0,0,1-.412-.169A.578.578,0,0,1,7.4.726.733.733,0,0,0,6.665,0H6.656a.733.733,0,0,0-.724.74,2.043,2.043,0,0,0,.616,1.446A2.156,2.156,0,0,0,8,2.775H9.047a1.319,1.319,0,0,1,1.318,1.29v.241H6.208C6.077,4.3,5.947,4.3,5.818,4.3A5.951,5.951,0,0,0,0,10.363v4.525c0,.129,0,.258,0,.388A5.928,5.928,0,0,0,6.164,20.96c1.408.025,2.841.037,4.281.037s2.9-.012,4.349-.038c.131.005.261.007.391,0A5.945,5.945,0,0,0,21,14.9V10.381c0-.129,0-.259,0-.39" transform="translate(44 163)" fill="#0da04a"/>
  </g>
</svg>
