<svg xmlns="http://www.w3.org/2000/svg" width="30" height="31.683" viewBox="0 0 30 31.683">
  <g id="icon-toggle" transform="translate(-39.485 -106)">
    <path id="Path_23" data-name="Path 23" d="M43.167,121.842c-.167-.008,22.667,0,22.667,0a30.842,30.842,0,0,0,3,15.492c-14.833-.167-28.667,0-28.667,0S43.5,129.017,43.167,121.842Z" fill="#fff"/>
    <path id="Path_22" data-name="Path 22" d="M54.469,113,40.5,119.833H68.833Z" fill="#fff"/>
    <path id="Path_21" data-name="Path 21" d="M54.469,107h6.865l-1.5,1.667,1.5,2.333H54.469Z" fill="#ddf3cc"/>
    <path id="Path_20" data-name="Path 20" d="M54.485,124.625c-.672,2.188-2.172,8.188-7.3,12.188,10.063.25,14.563,0,14.563,0S55.375,128.438,54.485,124.625Z" fill="#ddf3cc"/>
    <path id="Path_19" data-name="Path 19" d="M40.188,120H68.813v3.063a1.761,1.761,0,0,1-1.312,1.25c-1,.125-2.187-1.25-2.187-1.25a1.972,1.972,0,0,1-2.125,1.25c-1.5-.312-1.312-1.25-1.312-1.25a2.4,2.4,0,0,1-2.062,1.25,1.29,1.29,0,0,1-1.437-1.25,3.328,3.328,0,0,1-.42.571,2.186,2.186,0,0,1-1.7.679c-1.562,0-1.625-1.25-1.625-1.25s-1.245,1.419-1.875,1.25a8.549,8.549,0,0,1-1.937-1.25s-.436,1.25-1.5,1.25a3.818,3.818,0,0,1-2.187-1.25,2.137,2.137,0,0,1-1.75,1.25,1.753,1.753,0,0,1-1.562-1.25,3.175,3.175,0,0,1-2.25,1.25,1.191,1.191,0,0,1-1.375-1.25Z" fill="#ddf3cc"/>
    <path id="Path_4" data-name="Path 4" d="M31.7,31.139v-.1c0-.05,0-.05-.05-.05a.048.048,0,0,0-.05-.05c-1.931-2.624-2.921-9.208-3.317-12.525a2.17,2.17,0,0,0,1.139.3A2.3,2.3,0,0,0,31.7,16.436v-2.97a.048.048,0,0,0-.05-.05c0-.05-.05-.05-.05-.1l-.05-.05c-.05,0-.05-.05-.1-.05-.1-.05-10.644-4.059-14.158-6.634V5.1h6.238a.52.52,0,0,0,.446-.248.45.45,0,0,0,0-.5L22.84,2.574,23.978.792a.45.45,0,0,0,0-.5c-.2-.2-.347-.3-.5-.3H16.75a.5.5,0,0,0-.5.5v6.04C12.741,9.059,2.2,13.069,2.1,13.119c-.05,0-.05.05-.1.05a.048.048,0,0,0-.05.05.173.173,0,0,0-.05.1l-.05.05v2.921a2.324,2.324,0,0,0,2.327,2.327,2.3,2.3,0,0,0,1.139-.3c-.446,3.366-1.485,10-3.416,12.624a.048.048,0,0,1-.05.05l-.05.05v.149a.182.182,0,0,0,.05.149v.05a.106.106,0,0,0,.1.1.048.048,0,0,0,.05.05.048.048,0,0,1,.05.05c.05.05.05.05.1.05,0,.05.05.05.149.05h28.96a.3.3,0,0,0,.2-.05c.05,0,.05-.05.1-.05a.048.048,0,0,0,.05-.05l.05-.05.1-.1v-.05a.182.182,0,0,1,.05-.149c-.1,0-.1,0-.1-.05ZM17.246.941h5.347L21.75,2.228a.45.45,0,0,0,0,.5l.842,1.287H17.246ZM30.711,16.386a1.337,1.337,0,1,1-2.673,0V14.059h2.624v2.327ZM17.246,8.069a49.111,49.111,0,0,0,5.446,5H17.246Zm6.287,5.99v2.327a1.337,1.337,0,0,1-2.673,0V14.059h2.673Zm-3.614,0v2.327a1.328,1.328,0,0,1-2.624.3V14.059h2.624Zm-3.614,0v2.624a1.328,1.328,0,0,1-2.624-.3V14.059H16.3Zm-.05-5.99v5h-5.4A53.8,53.8,0,0,0,16.255,8.069Zm-3.564,5.99v2.327a1.337,1.337,0,0,1-2.673,0V14.059h2.673Zm1.436-5.149c-1.881,1.832-4.158,3.713-4.752,4.208H4.82c2.475-1.04,6.337-2.673,9.307-4.208Zm-5.05,5.149v2.327a1.337,1.337,0,1,1-2.673,0V14.01H9.077Zm-4.95,3.663A1.331,1.331,0,0,1,2.79,16.386V14.059H5.513v2.327A1.407,1.407,0,0,1,4.127,17.723Zm3.96,13.02H3.533a25.054,25.054,0,0,0,5.545-8.366C8.978,25.446,8.731,28.96,8.087,30.743Zm-4.059-1.98A51,51,0,0,0,6.255,18.069a2.286,2.286,0,0,0,1.485.545,2.073,2.073,0,0,0,1.337-.446v1.139A25.271,25.271,0,0,1,4.028,28.762Zm6.04-10.5a2.207,2.207,0,0,0,1.287.4,2.18,2.18,0,0,0,1.782-.891,2.251,2.251,0,0,0,1.782.891,3.2,3.2,0,0,0,.99-.2A23.852,23.852,0,0,1,9.325,29.7a61.54,61.54,0,0,0,.743-11.436ZM9.721,30.743A24.835,24.835,0,0,0,16.8,19.158a24.967,24.967,0,0,0,7.03,11.584Zm7.871-12.277a2.253,2.253,0,0,0,.99.248,2.18,2.18,0,0,0,1.782-.891,2.251,2.251,0,0,0,1.782.891,2.207,2.207,0,0,0,1.287-.4v.941a.316.316,0,0,0,0,.3v.05a57.328,57.328,0,0,0,.693,10.149,25.2,25.2,0,0,1-6.535-11.287Zm1.782-9.554c2.921,1.535,6.832,3.168,9.257,4.158H24.176C23.582,12.624,21.3,10.743,19.374,8.911ZM27.1,14.059v2.327a1.337,1.337,0,0,1-2.673,0V14.059H27.1Zm-2.673,4.158a2.264,2.264,0,0,0,2.822-.1,53.5,53.5,0,0,0,2.178,10.644,25.841,25.841,0,0,1-5.05-9.356,10.363,10.363,0,0,0,.05-1.188Zm.99,12.525c-.644-1.782-.891-5.248-.941-8.366a25.922,25.922,0,0,0,5.5,8.366H25.414Z" transform="translate(37.685 106)" fill="#0da04a"/>
  </g>
</svg>
