<svg xmlns="http://www.w3.org/2000/svg" width="16.332" height="20.291" viewBox="0 0 16.332 20.291">
  <g id="icon-4" transform="translate(-3.75 -1.75)">
    <path id="Rectangle_3" data-name="Rectangle 3" d="M1.551.059l6.5-.048a1.282,1.282,0,0,1,.613.153,1.6,1.6,0,0,1,.5.425,2.082,2.082,0,0,1,.338.634A2.456,2.456,0,0,1,9.628,2v4.96a2.463,2.463,0,0,1-.124.779,2.1,2.1,0,0,1-.338.636,1.615,1.615,0,0,1-.5.428,1.287,1.287,0,0,1-.613.156l-6.5-.009a1.264,1.264,0,0,1-.6-.157,1.6,1.6,0,0,1-.493-.426,2.088,2.088,0,0,1-.332-.63A2.461,2.461,0,0,1,0,6.966V2.052A2.467,2.467,0,0,1,.122,1.28,2.1,2.1,0,0,1,.454.648,1.611,1.611,0,0,1,.947.219,1.27,1.27,0,0,1,1.551.059Z" transform="translate(7.097 8.458)" fill="#ddf3cc"/>
    <path id="Path_6" data-name="Path 6" d="M7.25,4.472A2.722,2.722,0,0,1,9.972,1.75h3.959a2.722,2.722,0,0,1,2.722,2.722v.045a9.269,9.269,0,0,1-.043,1.14,1.71,1.71,0,0,1-.465,1.029,1.71,1.71,0,0,1-1.029.465,9.285,9.285,0,0,1-1.14.043H9.927a9.269,9.269,0,0,1-1.14-.043,1.71,1.71,0,0,1-1.029-.465,1.71,1.71,0,0,1-.465-1.029,9.285,9.285,0,0,1-.043-1.14V4.472ZM9.972,3.235A1.238,1.238,0,0,0,8.735,4.472a8.6,8.6,0,0,0,.03.987.7.7,0,0,0,.042.175v0h0a.7.7,0,0,0,.175.042,8.6,8.6,0,0,0,.987.03h3.959a8.6,8.6,0,0,0,.987-.03.7.7,0,0,0,.175-.042h0v0a.7.7,0,0,0,.042-.175,8.6,8.6,0,0,0,.03-.987,1.238,1.238,0,0,0-1.237-1.237ZM8.807,5.637Z" transform="translate(-0.036 0)" fill="#0da04a" fill-rule="evenodd"/>
    <path id="Path_7" data-name="Path 7" d="M7.957,3.75H7.9a7.48,7.48,0,0,0-.921.032,3.712,3.712,0,0,0-3.2,3.2A7.48,7.48,0,0,0,3.75,7.9v7.535a27.046,27.046,0,0,0,.116,3.3,3.679,3.679,0,0,0,.971,2.237,3.685,3.685,0,0,0,2.237.972,27.279,27.279,0,0,0,3.3.115h3.078a27.279,27.279,0,0,0,3.3-.115,3.685,3.685,0,0,0,2.237-.972,3.685,3.685,0,0,0,.972-2.237,27.279,27.279,0,0,0,.115-3.3V7.9a7.48,7.48,0,0,0-.032-.921,3.712,3.712,0,0,0-3.2-3.2,7.488,7.488,0,0,0-.921-.032h-.057V5.235a6.88,6.88,0,0,1,.786.02,2.227,2.227,0,0,1,1.917,1.916,7.267,7.267,0,0,1,.019.786V15.38a26.728,26.728,0,0,1-.1,3.159,2.238,2.238,0,0,1-.55,1.385,2.232,2.232,0,0,1-1.386.55,26.691,26.691,0,0,1-3.158.1H10.431a26.719,26.719,0,0,1-3.159-.1,2.238,2.238,0,0,1-1.385-.55,2.232,2.232,0,0,1-.55-1.386,26.7,26.7,0,0,1-.1-3.158V7.957a6.88,6.88,0,0,1,.02-.786A2.227,2.227,0,0,1,7.17,5.254a7.269,7.269,0,0,1,.786-.019V3.751Z" transform="translate(0 -0.02)" fill="#0da04a"/>
    <path id="Path_8" data-name="Path 8" d="M15.956,12.017a.742.742,0,1,0-1.049-1.049L11.472,14.4l-1.455-1.455A.742.742,0,1,0,8.968,14l1.98,1.98a.742.742,0,0,0,1.049,0l3.959-3.959Z" transform="translate(-0.051 -0.092)" fill="#0da04a"/>
  </g>
</svg>
