<?xml version="1.0" encoding="utf-8"?>
<!-- Generator: Adobe Illustrator 26.3.1, SVG Export Plug-In . SVG Version: 6.00 Build 0)  -->
<svg version="1.1" id="圖層_1" xmlns="http://www.w3.org/2000/svg" xmlns:xlink="http://www.w3.org/1999/xlink" x="0px" y="0px"
	 viewBox="0 0 116 50" style="enable-background:new 0 0 116 50;" xml:space="preserve">
<style type="text/css">
	.st0{fill:#EA5504;}
	.st1{fill:#FFFFFF;}
	.st2{fill:#F5A200;}
	.st3{fill:#5C3A93;}
	.st4{display:none;}
	.st5{display:inline;}
	.st6{fill:#231815;}
	.st7{display:inline;fill:#EA5504;}
	.st8{display:inline;fill:#FFFFFF;}
</style>
<g>
	<g>
		<path class="st0" d="M95.64,45.37v-0.66c0-0.06-0.04-0.08-0.09-0.08h-2.26H93.2c-0.02,0-0.02-0.03-0.01-0.04
			c0.01-0.01,0.01-0.01,0.02-0.02c0,0,0,0,0.01-0.01c0.6-0.69,1.2-1.12,1.41-1.28c0.04-0.03,0.09-0.05,0.09-0.1
			c0-0.04-0.04-0.04-0.07-0.04c-0.41,0-1.12,0-1.53,0c-0.13,0-0.21,0.01-0.27,0.04c-0.23,0.12-0.51,0.4-0.67,0.54
			c-0.16,0.14-0.57,0.56-0.89,0.82c-0.04,0.03-0.1,0-0.1-0.05v-1.76c0-0.03,0.03-0.06,0.06-0.06h3.6c0.07-0.01,0.06-0.08,0.06-0.08
			v-0.59c0-0.05-0.03-0.07-0.08-0.07h-3.58c-0.03,0-0.06-0.03-0.06-0.06v-0.83c0-0.03,0.03-0.06,0.06-0.06h4.2
			c0.18,0,0.29-0.21,0.19-0.36l-1.51-2.25c-0.12-0.18-0.33-0.29-0.55-0.29h-0.11h-1.39h-3.26h-1.35h-0.01
			c-0.31,0-0.59,0.16-0.76,0.42l-1.73,2.74c-0.02,0.04,0,0.09,0.05,0.09h1.15c0.37,0,0.71-0.19,0.91-0.5l1.26-1.99
			c0.02-0.03,0.06-0.05,0.1-0.05h4.04c0.04,0,0.07,0.02,0.1,0.05l0.83,1.24c0.03,0.04,0,0.09-0.05,0.09h-5.5
			c-0.1,0-0.11,0.04-0.08,0.1c0.03,0.07,0.14,0.42,0.15,0.6c0.01,0.11,0.06,0.13,0.11,0.13h1.64c0.03,0,0.06,0.03,0.06,0.06v0.83
			c0,0.03-0.03,0.06-0.06,0.06H86c-0.09,0-0.1,0.03-0.07,0.09c0.03,0.06,0.13,0.38,0.14,0.54c0.01,0.09,0.06,0.12,0.1,0.12h3.52
			c0.03,0,0.06,0.03,0.06,0.06v1.76c0,0.05-0.06,0.08-0.09,0.05c-0.32-0.26-0.73-0.68-0.89-0.82c-0.15-0.14-0.43-0.41-0.67-0.54
			c-0.05-0.03-0.14-0.04-0.27-0.04c-0.41,0-1.12,0-1.53,0c-0.03,0-0.07,0-0.07,0.04c0,0.04,0.05,0.07,0.09,0.1
			c0.21,0.16,0.81,0.59,1.41,1.28c0,0,0,0,0,0c0.01,0.01,0.02,0.02,0.02,0.03c0.01,0.01,0.02,0.04-0.01,0.04h-0.09h-2.32
			c-0.1,0-0.11,0.04-0.08,0.1c0.03,0.07,0.14,0.42,0.15,0.6c0.01,0.12,0.06,0.13,0.11,0.13c2.52,0,10.06,0,10.06,0
			C95.65,45.45,95.64,45.37,95.64,45.37z"/>
		<g>
			<path class="st0" d="M64.75,38.04c0,0,0.04-0.05,0.11-0.05h1.62c0,0,0.06,0.02,0,0.07c0,0-1.64,1.36-2.23,1.85
				c-0.09,0.08-0.15,0.13-0.13,0.19c0.02,0.05,0.07,0.06,0.15,0.06h2.47c0,0,0.08,0,0.08,0.07c0,0,0,0.31,0,0.42
				c0,0.08-0.05,0.12-0.11,0.15c0,0-1.59,1.05-2.19,1.45c-0.01,0.01-0.08,0.05-0.07,0.09c0.01,0.04,0.05,0.04,0.1,0.04
				c0.52,0,2.09,0,2.09,0s0.1,0.02,0.04,0.15c-0.06,0.13-0.06,0.21-0.06,0.31c0,0,0,1.46,0,1.97c0,0.25-0.1,0.57-0.6,0.69
				c-0.68,0.13-1.83-0.23-2.3-0.25c-0.46-0.03-0.91,0.01-1.28,0.25c0,0-0.1,0.01-0.04-0.08c0.06-0.09,0.13-0.32,0.12-1.07
				c0,0,0-0.12,0.09-0.13c0.09-0.01,1.51-0.21,2.41,0.13c0.25,0.1,0.31-0.09,0.31-0.23v-1.01c0,0-0.02-0.08-0.09-0.08h-2.5
				c0,0-0.32,0.06-0.41-0.26c-0.1-0.34,0.17-0.48,0.26-0.53l1.94-1.37c0,0,0.02-0.06-0.07-0.06h-1.68c0,0-0.38,0.03-0.47-0.32
				c-0.08-0.31,0.07-0.57,0.23-0.67L64.75,38.04z"/>
			<path class="st0" d="M67.1,38.61h2.1c0,0,0.07-0.01,0.07-0.07v-0.06v-0.44c0,0-0.01-0.05,0.06-0.06h2.07c0,0,0.07-0.01,0.07,0.06
				v0.5c0,0,0,0.07,0.07,0.07h1.64c0,0,0.07-0.01,0.07,0.05v0.57c0,0,0,0.07-0.07,0.07h-2.65c0,0-0.07-0.01-0.13,0.07
				c0,0-1.2,1.39-1.25,1.45c-0.1,0.12-0.11,0.26,0.09,0.26h2.29c0,0,0.16,0.02,0.13-0.14l-0.09-0.73c0,0-0.01-0.11,0.12-0.11h1.21
				c0,0,0.07-0.01,0.08,0.1c0.01,0.16,0.05,1.26,0.17,1.46c0,0,0.08,0.13-0.05,0.13h-1.27c0,0-0.07-0.01-0.07,0.08v2.71
				c0,0,0,0.15,0.14,0.15h1.82c0.05,0,0.09,0.06,0,0.11c-0.11,0.07-0.42,0.53-0.42,0.53s-0.06,0.09-0.14,0.09h-2.02
				c0,0-0.94,0.02-0.92-1.17c0,0-0.01-1.37,0-1.42c0.01-0.09-0.09-0.12-0.15-0.05c0,0-1,1.54-1.33,2.05
				c-0.15,0.23-0.4,0.61-1.01,0.6c-0.26,0-0.98,0-1.02,0c-0.05,0-0.11-0.06-0.03-0.11c0.43-0.23,0.99-1.26,1.8-2.43
				c0.39-0.57,0.61-0.55,0.94-0.55h0.71c0,0,0.06,0,0.08-0.09v-0.44c0,0,0-0.06-0.08-0.06H67.6c0,0-0.33,0.02-0.48-0.33
				c-0.12-0.28,0.06-0.52,0.16-0.62c0.38-0.38,1.04-1.07,1.4-1.43c0.04-0.04,0.02-0.12-0.06-0.12c-0.32,0-1.28,0-1.28,0
				s-0.1,0.01-0.11-0.08c-0.02-0.12-0.16-0.46-0.18-0.51C67.02,38.62,67.01,38.61,67.1,38.61"/>
		</g>
		<path class="st0" d="M74.21,41.21h9.6c0.06,0,0.11,0.03,0.11,0.11v0.85c0,0,0.01,0.1-0.09,0.12h-9.38c0,0-0.13,0-0.14-0.17
			c-0.01-0.23-0.15-0.68-0.2-0.78C74.07,41.25,74.08,41.21,74.21,41.21"/>
		<g>
			<g>
				<g>
					<path class="st0" d="M105.22,42.17c-0.05,0-0.09,0.04-0.09,0.09v2.03c-0.02,1.18,0.92,1.16,0.92,1.16h1.33
						c0.08,0,0.14-0.09,0.14-0.09s0.36-0.46,0.46-0.52c0.09-0.05,0.05-0.1,0-0.11h-1.33c-0.14,0-0.14-0.15-0.14-0.15v-2.32
						c0-0.05-0.04-0.09-0.09-0.09H105.22z"/>
					<path class="st0" d="M103.34,45.33h1.08c0.05,0,0.09-0.04,0.09-0.09v-2.99c0-0.05-0.04-0.09-0.09-0.09h-1.08
						c-0.05,0-0.09,0.04-0.09,0.09v2.99C103.25,45.29,103.29,45.33,103.34,45.33z"/>
					<path class="st0" d="M100.19,43.22c0.08,0,0.08,0.06,0.04,0.1c-0.11,0.1-0.37,0.43-1.19,1.44c-0.45,0.55-0.61,0.67-0.98,0.67
						h-1.52c-0.05,0-0.08-0.08,0-0.13c0.21-0.13,1.14-1.07,1.62-1.73c0.29-0.38,0.46-0.36,0.74-0.36H100.19z"/>
					<path class="st0" d="M98.6,38.36h-1.72c0,0-0.06,0-0.07,0.04c-0.01,0.07,0.05,0.06,0.09,0.08c0.21,0.13,0.77,0.53,1.39,1.16
						c0.25,0.25,0.51,0.23,0.64,0.23h1.55c0.07,0,0.11-0.06,0.02-0.11c-0.34-0.18-0.86-0.72-1.06-0.87
						C99.24,38.73,98.84,38.36,98.6,38.36"/>
					<path class="st0" d="M98.6,40.79h-1.72c0,0-0.06,0-0.07,0.04c-0.01,0.07,0.05,0.06,0.09,0.08c0.21,0.13,0.77,0.53,1.39,1.16
						c0.25,0.25,0.51,0.23,0.64,0.23h1.55c0.07,0,0.11-0.06,0.02-0.11c-0.34-0.18-0.86-0.72-1.06-0.87
						C99.24,41.16,98.84,40.79,98.6,40.79"/>
				</g>
				<path class="st0" d="M102.6,42.16h-1.24c-0.05,0-0.09,0.04-0.09,0.09v0.43c0,0.27-0.02,1.72-1.2,2.59
					c-0.07,0.05-0.03,0.16,0.05,0.16h1.04c0.34,0,0.67-0.16,0.88-0.44c0.26-0.36,0.53-0.95,0.62-2.06c0.02-0.2,0.02-0.52,0.03-0.68
					C102.69,42.2,102.65,42.16,102.6,42.16z"/>
			</g>
			<path class="st0" d="M106.95,38.61h-2.09c-0.07,0-0.07-0.07-0.07-0.07v-0.5c0-0.07-0.07-0.06-0.07-0.06h-2.06
				c-0.07,0.01-0.06,0.06-0.06,0.06v0.44v0.06c0,0.05-0.07,0.07-0.07,0.07h-2.39c-0.09,0-0.08,0.02-0.06,0.08
				c0.03,0.06,0.17,0.39,0.18,0.51c0.01,0.1,0.11,0.08,0.11,0.08h1.58c0.14,0,0.11,0.08,0.06,0.12c0,0-1.26,1.05-1.7,1.42
				c-0.11,0.09-0.28,0.34-0.16,0.62c0.14,0.35,0.47,0.34,0.47,0.34h6.23c0.13,0,0.05-0.13,0.05-0.13c-0.13-0.2-0.16-1.3-0.17-1.45
				c-0.01-0.11-0.08-0.1-0.08-0.1h-1.21c-0.1,0-0.12,0.11-0.12,0.11l0.09,0.64c0.03,0.16-0.13,0.14-0.13,0.14h-3.03
				c-0.11,0.01-0.18-0.14-0.09-0.26c0.05-0.06,1.55-1.36,1.55-1.36c0.08-0.08,0.17-0.07,0.17-0.07h3.06c0.07,0,0.07-0.07,0.07-0.07
				v-0.56C107.01,38.59,106.95,38.61,106.95,38.61z"/>
		</g>
	</g>
	<g>
		<g>
			<path class="st0" d="M53.77,35.73H6.63c-1.7,0-3-1.54-2.7-3.22l2.71-15.34c0.42-2.38,2.49-4.11,4.9-4.11h47.14
				c1.7,0,3,1.54,2.7,3.22l-2.71,15.34C58.25,34,56.18,35.73,53.77,35.73z"/>
			<g>
				<path class="st1" d="M39.08,19.08c-0.22-1.78-1.45-3.07-3.22-3.36c-2.19-0.36-4.43,0.89-5.44,3.02l-6.96,14.69h2.01
					c0.25,0,0.48-0.15,0.59-0.37l6.34-13.38c0.7-1.58,2.06-1.96,3.1-1.79c0.29,0.05,1.25,0.29,1.39,1.46l0.68,5.58h-5.65
					c-0.26,0-0.49,0.15-0.6,0.39l-0.81,1.81h7.32l0.7,5.73c0.04,0.33,0.32,0.57,0.65,0.57h1.63L39.08,19.08z"/>
				<path class="st1" d="M54.29,16c-0.32,0-0.6,0.24-0.65,0.56c-0.13,0.92-0.37,2.58-0.7,4.53c-0.72,3.33-1.56,4.62-3.77,4.8
					c-0.65,0.05-2.24-0.02-2.95-1.78c-0.66-1.63-0.52-4.81-0.34-7.41c0.01-0.18-0.05-0.36-0.17-0.49C45.6,16.08,45.42,16,45.24,16
					h-1.7l-0.01,0.27c-0.15,3.57-0.22,7.22,0.78,9.21c1.01,2.03,3.16,2.56,4.44,2.56c0.09,0,0.17,0,0.25-0.01
					c1.11-0.06,2.01-0.33,2.76-0.84c-0.07,0.3-0.14,0.6-0.21,0.89c-0.81,3.34-2.19,3.97-7.36,3.39l-0.36-0.04l0.22,1.37
					c0.06,0.35,0.35,0.62,0.7,0.65c0.83,0.07,1.58,0.11,2.26,0.11c4.15,0,5.84-1.33,6.59-4.78c0.72-3.29,1.5-7.49,2.33-12.46
					L55.99,16H54.29z"/>
				<path class="st1" d="M10.34,33.42c0.32,0,0.59-0.23,0.64-0.54l2.07-11.89c0.32-1.87,1.95-3.24,3.85-3.24h3.46
					c0.89,0,1.75,0.35,2.2,0.88c0.49,0.59,0.68,1.39,0.53,2.25c-0.33,1.88-2.32,3.52-4.25,3.52h-4.19c-0.32,0-0.59,0.23-0.64,0.54
					l-0.28,1.65h5.37c2.95,0,5.77-2.39,6.29-5.33c0.27-1.52-0.09-2.95-1.01-4.05c-0.9-1.08-2.22-1.67-3.72-1.67l-4.01,0
					c-2.79,0-5.18,2-5.66,4.75L8.66,33.42H10.34z"/>
			</g>
		</g>
		<g>
			<g>
				<path class="st2" d="M107.02,13.01c-1.28,0-2.39-0.49-3.13-1.37c-0.76-0.91-1.05-2.13-0.82-3.44c0.48-2.74,3.1-4.97,5.84-4.97
					c1.28,0,2.39,0.49,3.13,1.37c0.76,0.91,1.05,2.13,0.82,3.44C112.38,10.78,109.76,13.01,107.02,13.01z"/>
			</g>
			<g>
				<polygon class="st3" points="98.4,15.22 96.24,27.45 89.41,15.22 85.4,15.22 82.1,33.94 86.11,33.94 88.13,22.49 95.09,33.94 
					99.11,33.94 102.41,15.22 				"/>
				<path class="st3" d="M77.91,15.22l-1.84,10.43c-0.46,2.59-2.78,5.18-5.59,5.18c-1.08,0-1.88-0.4-2.49-1.13
					c-0.63-0.76-1.09-1.81-0.81-3.34l1.97-11.15h-4.19l-1.84,10.43c-0.41,2.32,0.17,4.61,1.58,6.3c1.41,1.68,3.47,2.61,5.79,2.61
					c4.53,0,8.86-3.67,9.66-8.19l1.97-11.15H77.91z"/>
				<path class="st3" d="M107.06,15.3c-0.09,0-0.18,0-0.27,0c-0.32,0-0.64-0.02-0.94-0.06l-3.3,18.71h4.01l3.41-19.34
					C109.06,15.01,108.07,15.26,107.06,15.3z"/>
			</g>
		</g>
	</g>
</g>
<g class="st4">
	<g class="st5">
		<path class="st1" d="M95.64,45.37v-0.66c0-0.06-0.04-0.08-0.09-0.08h-2.26H93.2c-0.02,0-0.02-0.03-0.01-0.04
			c0.01-0.01,0.01-0.01,0.02-0.02c0,0,0,0,0.01-0.01c0.6-0.69,1.2-1.12,1.41-1.28c0.04-0.03,0.09-0.05,0.09-0.1
			c0-0.04-0.04-0.04-0.07-0.04c-0.41,0-1.12,0-1.53,0c-0.13,0-0.21,0.01-0.27,0.04c-0.23,0.12-0.51,0.4-0.67,0.54
			c-0.16,0.14-0.57,0.56-0.89,0.82c-0.04,0.03-0.1,0-0.1-0.05v-1.76c0-0.03,0.03-0.06,0.06-0.06h3.6c0.07-0.01,0.06-0.08,0.06-0.08
			v-0.59c0-0.05-0.03-0.07-0.08-0.07h-3.58c-0.03,0-0.06-0.03-0.06-0.06v-0.83c0-0.03,0.03-0.06,0.06-0.06h4.2
			c0.18,0,0.29-0.21,0.19-0.36l-1.51-2.25c-0.12-0.18-0.33-0.29-0.55-0.29h-0.11h-1.39h-3.26h-1.35h-0.01
			c-0.31,0-0.59,0.16-0.76,0.42l-1.73,2.74c-0.02,0.04,0,0.09,0.05,0.09h1.15c0.37,0,0.71-0.19,0.91-0.5l1.26-1.99
			c0.02-0.03,0.06-0.05,0.1-0.05h4.04c0.04,0,0.07,0.02,0.1,0.05l0.83,1.24c0.03,0.04,0,0.09-0.05,0.09h-5.5
			c-0.1,0-0.11,0.04-0.08,0.1c0.03,0.07,0.14,0.42,0.15,0.6c0.01,0.11,0.06,0.13,0.11,0.13h1.64c0.03,0,0.06,0.03,0.06,0.06v0.83
			c0,0.03-0.03,0.06-0.06,0.06H86c-0.09,0-0.1,0.03-0.07,0.09c0.03,0.06,0.13,0.38,0.14,0.54c0.01,0.09,0.06,0.12,0.1,0.12h3.52
			c0.03,0,0.06,0.03,0.06,0.06v1.76c0,0.05-0.06,0.08-0.09,0.05c-0.32-0.26-0.73-0.68-0.89-0.82c-0.15-0.14-0.43-0.41-0.67-0.54
			c-0.05-0.03-0.14-0.04-0.27-0.04c-0.41,0-1.12,0-1.53,0c-0.03,0-0.07,0-0.07,0.04c0,0.04,0.05,0.07,0.09,0.1
			c0.21,0.16,0.81,0.59,1.41,1.28c0,0,0,0,0,0c0.01,0.01,0.02,0.02,0.02,0.03c0.01,0.01,0.02,0.04-0.01,0.04h-0.09h-2.32
			c-0.1,0-0.11,0.04-0.08,0.1c0.03,0.07,0.14,0.42,0.15,0.6c0.01,0.12,0.06,0.13,0.11,0.13c2.52,0,10.06,0,10.06,0
			C95.65,45.45,95.64,45.37,95.64,45.37z"/>
		<g>
			<path class="st1" d="M64.75,38.04c0,0,0.04-0.05,0.11-0.05h1.62c0,0,0.06,0.02,0,0.07c0,0-1.64,1.36-2.23,1.85
				c-0.09,0.08-0.15,0.13-0.13,0.19c0.02,0.05,0.07,0.06,0.15,0.06h2.47c0,0,0.08,0,0.08,0.07c0,0,0,0.31,0,0.42
				c0,0.08-0.05,0.12-0.11,0.15c0,0-1.59,1.05-2.19,1.45c-0.01,0.01-0.08,0.05-0.07,0.09c0.01,0.04,0.05,0.04,0.1,0.04
				c0.52,0,2.09,0,2.09,0s0.1,0.02,0.04,0.15c-0.06,0.13-0.06,0.21-0.06,0.31c0,0,0,1.46,0,1.97c0,0.25-0.1,0.57-0.6,0.69
				c-0.68,0.13-1.83-0.23-2.3-0.25c-0.46-0.03-0.91,0.01-1.28,0.25c0,0-0.1,0.01-0.04-0.08c0.06-0.09,0.13-0.32,0.12-1.07
				c0,0,0-0.12,0.09-0.13c0.09-0.01,1.51-0.21,2.41,0.13c0.25,0.1,0.31-0.09,0.31-0.23v-1.01c0,0-0.02-0.08-0.09-0.08h-2.5
				c0,0-0.32,0.06-0.41-0.26c-0.1-0.34,0.17-0.48,0.26-0.53l1.94-1.37c0,0,0.02-0.06-0.07-0.06h-1.68c0,0-0.38,0.03-0.47-0.32
				c-0.08-0.31,0.07-0.57,0.23-0.67L64.75,38.04z"/>
			<path class="st1" d="M67.1,38.61h2.1c0,0,0.07-0.01,0.07-0.07v-0.06v-0.44c0,0-0.01-0.05,0.06-0.06h2.07c0,0,0.07-0.01,0.07,0.06
				v0.5c0,0,0,0.07,0.07,0.07h1.64c0,0,0.07-0.01,0.07,0.05v0.57c0,0,0,0.07-0.07,0.07h-2.65c0,0-0.07-0.01-0.13,0.07
				c0,0-1.2,1.39-1.25,1.45c-0.1,0.12-0.11,0.26,0.09,0.26h2.29c0,0,0.16,0.02,0.13-0.14l-0.09-0.73c0,0-0.01-0.11,0.12-0.11h1.21
				c0,0,0.07-0.01,0.08,0.1c0.01,0.16,0.05,1.26,0.17,1.46c0,0,0.08,0.13-0.05,0.13h-1.27c0,0-0.07-0.01-0.07,0.08v2.71
				c0,0,0,0.15,0.14,0.15h1.82c0.05,0,0.09,0.06,0,0.11c-0.11,0.07-0.42,0.53-0.42,0.53s-0.06,0.09-0.14,0.09h-2.02
				c0,0-0.94,0.02-0.92-1.17c0,0-0.01-1.37,0-1.42c0.01-0.09-0.09-0.12-0.15-0.05c0,0-1,1.54-1.33,2.05
				c-0.15,0.23-0.4,0.61-1.01,0.6c-0.26,0-0.98,0-1.02,0c-0.05,0-0.11-0.06-0.03-0.11c0.43-0.23,0.99-1.26,1.8-2.43
				c0.39-0.57,0.61-0.55,0.94-0.55h0.71c0,0,0.06,0,0.08-0.09v-0.44c0,0,0-0.06-0.08-0.06H67.6c0,0-0.33,0.02-0.48-0.33
				c-0.12-0.28,0.06-0.52,0.16-0.62c0.38-0.38,1.04-1.07,1.4-1.43c0.04-0.04,0.02-0.12-0.06-0.12c-0.32,0-1.28,0-1.28,0
				s-0.1,0.01-0.11-0.08c-0.02-0.12-0.16-0.46-0.18-0.51C67.02,38.62,67.01,38.61,67.1,38.61"/>
		</g>
		<path class="st1" d="M74.21,41.21h9.6c0.06,0,0.11,0.03,0.11,0.11v0.85c0,0,0.01,0.1-0.09,0.12h-9.38c0,0-0.13,0-0.14-0.17
			c-0.01-0.23-0.15-0.68-0.2-0.77C74.07,41.26,74.08,41.21,74.21,41.21"/>
		<g>
			<g>
				<g>
					<path class="st1" d="M105.22,42.17c-0.05,0-0.09,0.04-0.09,0.09v2.03c-0.02,1.18,0.92,1.16,0.92,1.16h1.33
						c0.08,0,0.14-0.09,0.14-0.09s0.36-0.46,0.46-0.52c0.09-0.05,0.05-0.1,0-0.11h-1.33c-0.14,0-0.14-0.15-0.14-0.15v-2.32
						c0-0.05-0.04-0.09-0.09-0.09H105.22z"/>
					<path class="st1" d="M103.34,45.33h1.08c0.05,0,0.09-0.04,0.09-0.09v-2.99c0-0.05-0.04-0.09-0.09-0.09h-1.08
						c-0.05,0-0.09,0.04-0.09,0.09v2.99C103.25,45.29,103.29,45.33,103.34,45.33z"/>
					<path class="st1" d="M100.19,43.22c0.08,0,0.08,0.06,0.04,0.1c-0.11,0.1-0.37,0.43-1.19,1.44c-0.45,0.55-0.61,0.67-0.98,0.67
						h-1.52c-0.05,0-0.08-0.08,0-0.13c0.21-0.13,1.14-1.07,1.62-1.73c0.29-0.38,0.46-0.36,0.74-0.36H100.19z"/>
					<path class="st1" d="M98.6,38.36h-1.72c0,0-0.06,0-0.07,0.04c-0.01,0.07,0.05,0.06,0.09,0.08c0.21,0.13,0.77,0.53,1.39,1.16
						c0.25,0.25,0.51,0.23,0.64,0.23h1.55c0.07,0,0.11-0.06,0.02-0.11c-0.34-0.18-0.86-0.72-1.06-0.87
						C99.24,38.73,98.84,38.36,98.6,38.36"/>
					<path class="st1" d="M98.6,40.79h-1.72c0,0-0.06,0-0.07,0.04c-0.01,0.07,0.05,0.06,0.09,0.08c0.21,0.13,0.77,0.53,1.39,1.16
						c0.25,0.25,0.51,0.23,0.64,0.23h1.55c0.07,0,0.11-0.06,0.02-0.11c-0.34-0.18-0.86-0.72-1.06-0.87
						C99.24,41.16,98.84,40.79,98.6,40.79"/>
				</g>
				<path class="st1" d="M102.6,42.16h-1.24c-0.05,0-0.09,0.04-0.09,0.09v0.43c0,0.27-0.02,1.72-1.2,2.59
					c-0.07,0.05-0.03,0.16,0.05,0.16h1.04c0.34,0,0.67-0.16,0.88-0.44c0.26-0.36,0.53-0.95,0.62-2.06c0.02-0.2,0.02-0.52,0.03-0.68
					C102.69,42.2,102.65,42.16,102.6,42.16z"/>
			</g>
			<path class="st1" d="M106.95,38.61h-2.09c-0.07,0-0.07-0.07-0.07-0.07v-0.5c0-0.07-0.07-0.06-0.07-0.06h-2.06
				c-0.07,0.01-0.06,0.06-0.06,0.06v0.44v0.06c0,0.05-0.07,0.07-0.07,0.07h-2.39c-0.09,0-0.08,0.02-0.06,0.08
				c0.03,0.06,0.17,0.39,0.18,0.51c0.01,0.1,0.11,0.08,0.11,0.08h1.58c0.14,0,0.11,0.08,0.06,0.12c0,0-1.26,1.05-1.7,1.42
				c-0.11,0.09-0.28,0.34-0.16,0.62c0.14,0.35,0.47,0.34,0.47,0.34h6.23c0.13,0,0.05-0.13,0.05-0.13c-0.13-0.2-0.16-1.3-0.17-1.45
				c-0.01-0.11-0.08-0.1-0.08-0.1h-1.21c-0.1,0-0.12,0.11-0.12,0.11l0.09,0.64c0.03,0.16-0.13,0.14-0.13,0.14h-3.03
				c-0.11,0.01-0.18-0.14-0.09-0.26c0.05-0.06,1.55-1.36,1.55-1.36c0.08-0.08,0.17-0.07,0.17-0.07h3.06c0.07,0,0.07-0.07,0.07-0.07
				v-0.56C107.01,38.59,106.95,38.61,106.95,38.61z"/>
		</g>
	</g>
	<g class="st5">
		<g>
			<path class="st1" d="M53.77,35.73H6.63c-1.7,0-3-1.54-2.7-3.22l2.71-15.34c0.42-2.38,2.49-4.11,4.9-4.11h47.14
				c1.7,0,3,1.54,2.7,3.22l-2.71,15.34C58.25,34,56.18,35.73,53.77,35.73z"/>
			<g>
				<path class="st0" d="M39.08,19.08c-0.22-1.78-1.45-3.07-3.22-3.36c-2.19-0.36-4.43,0.89-5.44,3.02l-6.96,14.69h2.01
					c0.25,0,0.48-0.15,0.59-0.37l6.34-13.38c0.7-1.58,2.06-1.96,3.1-1.79c0.29,0.05,1.25,0.29,1.39,1.46l0.68,5.58h-5.65
					c-0.26,0-0.49,0.15-0.6,0.39l-0.81,1.81h7.32l0.7,5.73c0.04,0.33,0.32,0.57,0.65,0.57h1.63L39.08,19.08z"/>
				<path class="st0" d="M54.29,16c-0.32,0-0.6,0.24-0.65,0.56c-0.13,0.92-0.37,2.58-0.7,4.53c-0.72,3.33-1.56,4.62-3.77,4.8
					c-0.65,0.05-2.24-0.02-2.95-1.78c-0.66-1.63-0.52-4.81-0.34-7.41c0.01-0.18-0.05-0.36-0.17-0.49C45.6,16.08,45.42,16,45.24,16
					h-1.7l-0.01,0.27c-0.15,3.57-0.22,7.22,0.78,9.21c1.01,2.03,3.16,2.56,4.44,2.56c0.09,0,0.17,0,0.25-0.01
					c1.11-0.06,2.01-0.33,2.76-0.84c-0.07,0.3-0.14,0.6-0.21,0.89c-0.81,3.34-2.19,3.97-7.36,3.39l-0.36-0.04l0.22,1.37
					c0.06,0.35,0.35,0.62,0.7,0.65c0.83,0.07,1.58,0.11,2.26,0.11c4.15,0,5.84-1.33,6.59-4.78c0.72-3.29,1.5-7.49,2.33-12.46
					L55.99,16H54.29z"/>
				<path class="st0" d="M10.34,33.42c0.32,0,0.59-0.23,0.64-0.54l2.07-11.89c0.32-1.87,1.95-3.24,3.85-3.24h3.46
					c0.89,0,1.75,0.35,2.2,0.88c0.49,0.59,0.68,1.39,0.53,2.25c-0.33,1.88-2.32,3.52-4.25,3.52h-4.19c-0.32,0-0.59,0.23-0.64,0.54
					l-0.28,1.65h5.37c2.95,0,5.77-2.39,6.29-5.33c0.27-1.52-0.09-2.95-1.01-4.05c-0.9-1.08-2.22-1.67-3.72-1.67l-4.01,0
					c-2.79,0-5.18,2-5.66,4.75L8.66,33.42H10.34z"/>
			</g>
		</g>
		<g>
			<g>
				<path class="st2" d="M107.02,13.01c-1.28,0-2.39-0.49-3.13-1.37c-0.76-0.91-1.05-2.13-0.82-3.44c0.48-2.74,3.1-4.97,5.84-4.97
					c1.28,0,2.39,0.49,3.13,1.37c0.76,0.91,1.05,2.13,0.82,3.44C112.38,10.78,109.76,13.01,107.02,13.01z"/>
			</g>
			<g>
				<polygon class="st1" points="98.4,15.22 96.24,27.45 89.41,15.22 85.4,15.22 82.1,33.94 86.11,33.94 88.13,22.49 95.09,33.94 
					99.11,33.94 102.41,15.22 				"/>
				<path class="st1" d="M77.91,15.22l-1.84,10.43c-0.46,2.59-2.78,5.18-5.59,5.18c-1.08,0-1.88-0.4-2.49-1.13
					c-0.63-0.76-1.09-1.81-0.81-3.34l1.97-11.15h-4.19l-1.84,10.43c-0.41,2.32,0.17,4.61,1.58,6.3c1.41,1.68,3.47,2.61,5.79,2.61
					c4.53,0,8.86-3.67,9.66-8.19l1.97-11.15H77.91z"/>
				<path class="st1" d="M107.06,15.3c-0.09,0-0.18,0-0.27,0c-0.32,0-0.64-0.02-0.94-0.06l-3.3,18.71h4.01l3.41-19.34
					C109.06,15.01,108.07,15.26,107.06,15.3z"/>
			</g>
		</g>
	</g>
</g>
<g class="st4">
	<g class="st5">
		<path class="st1" d="M95.64,45.37v-0.66c0-0.06-0.04-0.08-0.09-0.08h-2.26H93.2c-0.02,0-0.02-0.03-0.01-0.04
			c0.01-0.01,0.01-0.01,0.02-0.02c0,0,0,0,0.01-0.01c0.6-0.69,1.2-1.12,1.41-1.28c0.04-0.03,0.09-0.05,0.09-0.1
			c0-0.04-0.04-0.04-0.07-0.04c-0.41,0-1.12,0-1.53,0c-0.13,0-0.21,0.01-0.27,0.04c-0.23,0.12-0.51,0.4-0.67,0.54
			c-0.16,0.14-0.57,0.56-0.89,0.82c-0.04,0.03-0.1,0-0.1-0.05v-1.76c0-0.03,0.03-0.06,0.06-0.06h3.6c0.07-0.01,0.06-0.08,0.06-0.08
			v-0.59c0-0.05-0.03-0.07-0.08-0.07h-3.58c-0.03,0-0.06-0.03-0.06-0.06v-0.83c0-0.03,0.03-0.06,0.06-0.06h4.2
			c0.18,0,0.29-0.21,0.19-0.36l-1.51-2.25c-0.12-0.18-0.33-0.29-0.55-0.29h-0.11h-1.39h-3.26h-1.35h-0.01
			c-0.31,0-0.59,0.16-0.76,0.42l-1.73,2.74c-0.02,0.04,0,0.09,0.05,0.09h1.15c0.37,0,0.71-0.19,0.91-0.5l1.26-1.99
			c0.02-0.03,0.06-0.05,0.1-0.05h4.04c0.04,0,0.07,0.02,0.1,0.05l0.83,1.24c0.03,0.04,0,0.09-0.05,0.09h-5.5
			c-0.1,0-0.11,0.04-0.08,0.1c0.03,0.07,0.14,0.42,0.15,0.6c0.01,0.11,0.06,0.13,0.11,0.13h1.64c0.03,0,0.06,0.03,0.06,0.06v0.83
			c0,0.03-0.03,0.06-0.06,0.06H86c-0.09,0-0.1,0.03-0.07,0.09c0.03,0.06,0.13,0.38,0.14,0.54c0.01,0.09,0.06,0.12,0.1,0.12h3.52
			c0.03,0,0.06,0.03,0.06,0.06v1.76c0,0.05-0.06,0.08-0.09,0.05c-0.32-0.26-0.73-0.68-0.89-0.82c-0.15-0.14-0.43-0.41-0.67-0.54
			c-0.05-0.03-0.14-0.04-0.27-0.04c-0.41,0-1.12,0-1.53,0c-0.03,0-0.07,0-0.07,0.04c0,0.04,0.05,0.07,0.09,0.1
			c0.21,0.16,0.81,0.59,1.41,1.28c0,0,0,0,0,0c0.01,0.01,0.02,0.02,0.02,0.03c0.01,0.01,0.02,0.04-0.01,0.04h-0.09h-2.32
			c-0.1,0-0.11,0.04-0.08,0.1c0.03,0.07,0.14,0.42,0.15,0.6c0.01,0.12,0.06,0.13,0.11,0.13c2.52,0,10.06,0,10.06,0
			C95.65,45.45,95.64,45.37,95.64,45.37z"/>
		<g>
			<path class="st1" d="M64.75,38.04c0,0,0.04-0.05,0.11-0.05h1.62c0,0,0.06,0.02,0,0.07c0,0-1.64,1.36-2.23,1.85
				c-0.09,0.08-0.15,0.13-0.13,0.19c0.02,0.05,0.07,0.06,0.15,0.06h2.47c0,0,0.08,0,0.08,0.07c0,0,0,0.31,0,0.42
				c0,0.08-0.05,0.12-0.11,0.15c0,0-1.59,1.05-2.19,1.45c-0.01,0.01-0.08,0.05-0.07,0.09c0.01,0.04,0.05,0.04,0.1,0.04
				c0.52,0,2.09,0,2.09,0s0.1,0.02,0.04,0.15c-0.06,0.13-0.06,0.21-0.06,0.31c0,0,0,1.46,0,1.97c0,0.25-0.1,0.57-0.6,0.69
				c-0.68,0.13-1.83-0.23-2.3-0.25c-0.46-0.03-0.91,0.01-1.28,0.25c0,0-0.1,0.01-0.04-0.08c0.06-0.09,0.13-0.32,0.12-1.07
				c0,0,0-0.12,0.09-0.13c0.09-0.01,1.51-0.21,2.41,0.13c0.25,0.1,0.31-0.09,0.31-0.23v-1.01c0,0-0.02-0.08-0.09-0.08h-2.5
				c0,0-0.32,0.06-0.41-0.26c-0.1-0.34,0.17-0.48,0.26-0.53l1.94-1.37c0,0,0.02-0.06-0.07-0.06h-1.68c0,0-0.38,0.03-0.47-0.32
				c-0.08-0.31,0.07-0.57,0.23-0.67L64.75,38.04z"/>
			<path class="st1" d="M67.1,38.61h2.1c0,0,0.07-0.01,0.07-0.07v-0.06v-0.44c0,0-0.01-0.05,0.06-0.06h2.07c0,0,0.07-0.01,0.07,0.06
				v0.5c0,0,0,0.07,0.07,0.07h1.64c0,0,0.07-0.01,0.07,0.05v0.57c0,0,0,0.07-0.07,0.07h-2.65c0,0-0.07-0.01-0.13,0.07
				c0,0-1.2,1.39-1.25,1.45c-0.1,0.12-0.11,0.26,0.09,0.26h2.29c0,0,0.16,0.02,0.13-0.14l-0.09-0.73c0,0-0.01-0.11,0.12-0.11h1.21
				c0,0,0.07-0.01,0.08,0.1c0.01,0.16,0.05,1.26,0.17,1.46c0,0,0.08,0.13-0.05,0.13h-1.27c0,0-0.07-0.01-0.07,0.08v2.71
				c0,0,0,0.15,0.14,0.15h1.82c0.05,0,0.09,0.06,0,0.11c-0.11,0.07-0.42,0.53-0.42,0.53s-0.06,0.09-0.14,0.09h-2.02
				c0,0-0.94,0.02-0.92-1.17c0,0-0.01-1.37,0-1.42c0.01-0.09-0.09-0.12-0.15-0.05c0,0-1,1.54-1.33,2.05
				c-0.15,0.23-0.4,0.61-1.01,0.6c-0.26,0-0.98,0-1.02,0c-0.05,0-0.11-0.06-0.03-0.11c0.43-0.23,0.99-1.26,1.8-2.43
				c0.39-0.57,0.61-0.55,0.94-0.55h0.71c0,0,0.06,0,0.08-0.09v-0.44c0,0,0-0.06-0.08-0.06H67.6c0,0-0.33,0.02-0.48-0.33
				c-0.12-0.28,0.06-0.52,0.16-0.62c0.38-0.38,1.04-1.07,1.4-1.43c0.04-0.04,0.02-0.12-0.06-0.12c-0.32,0-1.28,0-1.28,0
				s-0.1,0.01-0.11-0.08c-0.02-0.12-0.16-0.46-0.18-0.51C67.02,38.62,67.01,38.61,67.1,38.61"/>
		</g>
		<path class="st1" d="M74.21,41.21h9.6c0.06,0,0.11,0.03,0.11,0.11v0.85c0,0,0.01,0.1-0.09,0.12h-9.38c0,0-0.13,0-0.14-0.17
			c-0.01-0.23-0.15-0.68-0.2-0.78C74.07,41.25,74.08,41.21,74.21,41.21"/>
		<g>
			<g>
				<g>
					<path class="st1" d="M105.22,42.17c-0.05,0-0.09,0.04-0.09,0.09v2.03c-0.02,1.18,0.92,1.16,0.92,1.16h1.33
						c0.08,0,0.14-0.09,0.14-0.09s0.36-0.46,0.46-0.52c0.09-0.05,0.05-0.1,0-0.11h-1.33c-0.14,0-0.14-0.15-0.14-0.15v-2.32
						c0-0.05-0.04-0.09-0.09-0.09H105.22z"/>
					<path class="st1" d="M103.34,45.33h1.08c0.05,0,0.09-0.04,0.09-0.09v-2.99c0-0.05-0.04-0.09-0.09-0.09h-1.08
						c-0.05,0-0.09,0.04-0.09,0.09v2.99C103.25,45.29,103.29,45.33,103.34,45.33z"/>
					<path class="st1" d="M100.19,43.22c0.08,0,0.08,0.06,0.04,0.1c-0.11,0.1-0.37,0.43-1.19,1.44c-0.45,0.55-0.61,0.67-0.98,0.67
						h-1.52c-0.05,0-0.08-0.08,0-0.13c0.21-0.13,1.14-1.07,1.62-1.73c0.29-0.38,0.46-0.36,0.74-0.36H100.19z"/>
					<path class="st1" d="M98.6,38.36h-1.72c0,0-0.06,0-0.07,0.04c-0.01,0.07,0.05,0.06,0.09,0.08c0.21,0.13,0.77,0.53,1.39,1.16
						c0.25,0.25,0.51,0.23,0.64,0.23h1.55c0.07,0,0.11-0.06,0.02-0.11c-0.34-0.18-0.86-0.72-1.06-0.87
						C99.24,38.73,98.84,38.36,98.6,38.36"/>
					<path class="st1" d="M98.6,40.79h-1.72c0,0-0.06,0-0.07,0.04c-0.01,0.07,0.05,0.06,0.09,0.08c0.21,0.13,0.77,0.53,1.39,1.16
						c0.25,0.25,0.51,0.23,0.64,0.23h1.55c0.07,0,0.11-0.06,0.02-0.11c-0.34-0.18-0.86-0.72-1.06-0.87
						C99.24,41.16,98.84,40.79,98.6,40.79"/>
				</g>
				<path class="st1" d="M102.6,42.16h-1.24c-0.05,0-0.09,0.04-0.09,0.09v0.43c0,0.27-0.02,1.72-1.2,2.59
					c-0.07,0.05-0.03,0.16,0.05,0.16h1.04c0.34,0,0.67-0.16,0.88-0.44c0.26-0.36,0.53-0.95,0.62-2.06c0.02-0.2,0.02-0.52,0.03-0.68
					C102.69,42.2,102.65,42.16,102.6,42.16z"/>
			</g>
			<path class="st1" d="M106.95,38.61h-2.09c-0.07,0-0.07-0.07-0.07-0.07v-0.5c0-0.07-0.07-0.06-0.07-0.06h-2.06
				c-0.07,0.01-0.06,0.06-0.06,0.06v0.44v0.06c0,0.05-0.07,0.07-0.07,0.07h-2.39c-0.09,0-0.08,0.02-0.06,0.08
				c0.03,0.06,0.17,0.39,0.18,0.51c0.01,0.1,0.11,0.08,0.11,0.08h1.58c0.14,0,0.11,0.08,0.06,0.12c0,0-1.26,1.05-1.7,1.42
				c-0.11,0.09-0.28,0.34-0.16,0.62c0.14,0.35,0.47,0.34,0.47,0.34h6.23c0.13,0,0.05-0.13,0.05-0.13c-0.13-0.2-0.16-1.3-0.17-1.45
				c-0.01-0.11-0.08-0.1-0.08-0.1h-1.21c-0.1,0-0.12,0.11-0.12,0.11l0.09,0.64c0.03,0.16-0.13,0.14-0.13,0.14h-3.03
				c-0.11,0.02-0.18-0.14-0.09-0.26c0.05-0.06,1.55-1.36,1.55-1.36c0.08-0.08,0.17-0.07,0.17-0.07h3.06c0.07,0,0.07-0.07,0.07-0.07
				v-0.56C107.01,38.59,106.95,38.61,106.95,38.61z"/>
		</g>
	</g>
	<g class="st5">
		<g>
			<path class="st1" d="M53.77,35.73H6.63c-1.7,0-3-1.54-2.7-3.22l2.71-15.34c0.42-2.38,2.49-4.11,4.9-4.11h47.14
				c1.7,0,3,1.54,2.7,3.22l-2.71,15.34C58.25,34,56.18,35.73,53.77,35.73z"/>
			<g>
				<path class="st3" d="M39.08,19.08c-0.22-1.78-1.45-3.07-3.22-3.36c-2.19-0.36-4.43,0.89-5.44,3.02l-6.96,14.69h2.01
					c0.25,0,0.48-0.15,0.59-0.37l6.34-13.38c0.7-1.58,2.06-1.96,3.1-1.79c0.29,0.05,1.25,0.29,1.39,1.46l0.68,5.58h-5.65
					c-0.26,0-0.49,0.15-0.6,0.39l-0.81,1.81h7.32l0.7,5.73c0.04,0.33,0.32,0.57,0.65,0.57h1.63L39.08,19.08z"/>
				<path class="st3" d="M54.29,16c-0.32,0-0.6,0.24-0.65,0.56c-0.13,0.92-0.37,2.58-0.7,4.53c-0.72,3.33-1.56,4.62-3.77,4.8
					c-0.65,0.05-2.24-0.02-2.95-1.78c-0.66-1.63-0.52-4.81-0.34-7.41c0.01-0.18-0.05-0.36-0.17-0.49C45.6,16.08,45.42,16,45.24,16
					h-1.7l-0.01,0.27c-0.15,3.57-0.22,7.22,0.78,9.21c1.01,2.03,3.16,2.56,4.44,2.56c0.09,0,0.17,0,0.25-0.01
					c1.11-0.06,2.01-0.33,2.76-0.84c-0.07,0.3-0.14,0.6-0.21,0.89c-0.81,3.34-2.19,3.97-7.36,3.39l-0.36-0.04l0.22,1.37
					c0.06,0.35,0.35,0.62,0.7,0.65c0.83,0.07,1.58,0.11,2.26,0.11c4.15,0,5.84-1.33,6.59-4.78c0.72-3.29,1.5-7.49,2.33-12.46
					L55.99,16H54.29z"/>
				<path class="st3" d="M10.34,33.42c0.32,0,0.59-0.23,0.64-0.54l2.07-11.89c0.32-1.87,1.95-3.24,3.85-3.24h3.46
					c0.89,0,1.75,0.35,2.2,0.88c0.49,0.59,0.68,1.39,0.53,2.25c-0.33,1.88-2.32,3.52-4.25,3.52h-4.19c-0.32,0-0.59,0.23-0.64,0.54
					l-0.28,1.65h5.37c2.95,0,5.77-2.39,6.29-5.33c0.27-1.52-0.09-2.95-1.01-4.05c-0.9-1.08-2.22-1.67-3.72-1.67l-4.01,0
					c-2.79,0-5.18,2-5.66,4.75L8.66,33.42H10.34z"/>
			</g>
		</g>
		<g>
			<g>
				<path class="st2" d="M107.02,13.01c-1.28,0-2.39-0.49-3.13-1.37c-0.76-0.91-1.05-2.13-0.82-3.44c0.48-2.74,3.1-4.97,5.84-4.97
					c1.28,0,2.39,0.49,3.13,1.37c0.76,0.91,1.05,2.13,0.82,3.44C112.38,10.78,109.76,13.01,107.02,13.01z"/>
			</g>
			<g>
				<polygon class="st1" points="98.4,15.22 96.24,27.45 89.41,15.22 85.4,15.22 82.1,33.94 86.11,33.94 88.13,22.49 95.09,33.94 
					99.11,33.94 102.41,15.22 				"/>
				<path class="st1" d="M77.91,15.22l-1.84,10.43c-0.46,2.59-2.78,5.18-5.59,5.18c-1.08,0-1.88-0.4-2.49-1.13
					c-0.63-0.76-1.09-1.81-0.81-3.34l1.97-11.15h-4.19l-1.84,10.43c-0.41,2.32,0.17,4.61,1.58,6.3c1.41,1.68,3.47,2.61,5.79,2.61
					c4.53,0,8.86-3.67,9.66-8.19l1.97-11.15H77.91z"/>
				<path class="st1" d="M107.06,15.3c-0.09,0-0.18,0.01-0.27,0.01c-0.32,0-0.64-0.02-0.94-0.06l-3.3,18.71h4.01l3.41-19.34
					C109.06,15.01,108.07,15.26,107.06,15.3z"/>
			</g>
		</g>
	</g>
</g>
<g class="st4">
	<g class="st5">
		<path class="st1" d="M95.64,45.37v-0.66c0-0.06-0.04-0.08-0.09-0.08h-2.26H93.2c-0.02,0-0.02-0.03-0.01-0.04
			c0.01-0.01,0.01-0.01,0.02-0.02c0,0,0,0,0.01-0.01c0.6-0.69,1.2-1.12,1.41-1.28c0.04-0.03,0.09-0.05,0.09-0.1
			c0-0.04-0.04-0.04-0.07-0.04c-0.41,0-1.12,0-1.53,0c-0.13,0-0.21,0.01-0.27,0.04c-0.23,0.12-0.51,0.4-0.67,0.54
			c-0.16,0.14-0.57,0.56-0.89,0.82c-0.04,0.03-0.1,0-0.1-0.05v-1.76c0-0.03,0.03-0.06,0.06-0.06h3.6c0.07-0.01,0.06-0.08,0.06-0.08
			v-0.59c0-0.05-0.03-0.07-0.08-0.07h-3.58c-0.03,0-0.06-0.03-0.06-0.06v-0.83c0-0.03,0.03-0.06,0.06-0.06h4.2
			c0.18,0,0.29-0.21,0.19-0.36l-1.51-2.25c-0.12-0.18-0.33-0.29-0.55-0.29h-0.11h-1.39h-3.26h-1.35h-0.01
			c-0.31,0-0.59,0.16-0.76,0.42l-1.73,2.74c-0.02,0.04,0,0.09,0.05,0.09h1.15c0.37,0,0.71-0.19,0.91-0.5l1.26-2
			c0.02-0.03,0.06-0.05,0.1-0.05h4.04c0.04,0,0.07,0.02,0.1,0.05l0.83,1.24c0.03,0.04,0,0.09-0.05,0.09h-5.5
			c-0.1,0-0.11,0.04-0.08,0.1c0.03,0.07,0.14,0.42,0.15,0.6c0.01,0.11,0.06,0.13,0.11,0.13h1.64c0.03,0,0.06,0.03,0.06,0.06v0.83
			c0,0.03-0.03,0.06-0.06,0.06H86c-0.09,0-0.1,0.03-0.07,0.09c0.03,0.06,0.13,0.38,0.14,0.54c0.01,0.09,0.06,0.12,0.1,0.12h3.52
			c0.03,0,0.06,0.03,0.06,0.06v1.76c0,0.05-0.06,0.08-0.09,0.05c-0.32-0.26-0.73-0.68-0.89-0.82c-0.15-0.14-0.43-0.41-0.67-0.54
			c-0.05-0.03-0.14-0.04-0.27-0.04c-0.41,0-1.12,0-1.53,0c-0.03,0-0.07,0-0.07,0.04c0,0.04,0.05,0.07,0.09,0.1
			c0.21,0.16,0.81,0.59,1.41,1.28c0,0,0,0,0,0c0.01,0.01,0.02,0.02,0.02,0.03c0.01,0.01,0.02,0.04-0.01,0.04h-0.09h-2.32
			c-0.1,0-0.11,0.04-0.08,0.1c0.03,0.07,0.14,0.42,0.15,0.6c0.01,0.12,0.06,0.13,0.11,0.13c2.52,0,10.06,0,10.06,0
			C95.65,45.45,95.64,45.37,95.64,45.37z"/>
		<g>
			<path class="st1" d="M64.75,38.04c0,0,0.04-0.05,0.11-0.05h1.62c0,0,0.06,0.02,0,0.07c0,0-1.64,1.36-2.23,1.85
				c-0.09,0.08-0.15,0.13-0.13,0.19c0.02,0.05,0.07,0.06,0.15,0.06h2.47c0,0,0.08,0,0.08,0.07c0,0,0,0.31,0,0.42
				c0,0.08-0.05,0.12-0.11,0.15c0,0-1.59,1.05-2.19,1.45c-0.01,0.01-0.08,0.05-0.07,0.09c0.01,0.04,0.05,0.04,0.1,0.04
				c0.52,0,2.09,0,2.09,0s0.1,0.02,0.04,0.15c-0.06,0.13-0.06,0.21-0.06,0.31c0,0,0,1.46,0,1.97c0,0.25-0.1,0.57-0.6,0.69
				c-0.68,0.13-1.83-0.23-2.3-0.25c-0.46-0.03-0.91,0.01-1.28,0.25c0,0-0.1,0.01-0.04-0.08c0.06-0.09,0.13-0.32,0.12-1.07
				c0,0,0-0.12,0.09-0.13c0.09-0.01,1.51-0.21,2.41,0.13c0.25,0.1,0.31-0.09,0.31-0.23v-1.01c0,0-0.02-0.08-0.09-0.08h-2.5
				c0,0-0.32,0.06-0.41-0.26c-0.1-0.34,0.17-0.48,0.26-0.53l1.94-1.37c0,0,0.02-0.06-0.07-0.06h-1.68c0,0-0.38,0.03-0.47-0.32
				c-0.08-0.31,0.07-0.57,0.23-0.67L64.75,38.04z"/>
			<path class="st1" d="M67.1,38.61h2.1c0,0,0.07-0.01,0.07-0.07v-0.06v-0.44c0,0-0.01-0.05,0.06-0.06h2.07c0,0,0.07-0.01,0.07,0.06
				v0.5c0,0,0,0.07,0.07,0.07h1.64c0,0,0.07-0.01,0.07,0.05v0.57c0,0,0,0.07-0.07,0.07h-2.65c0,0-0.07-0.01-0.13,0.07
				c0,0-1.2,1.39-1.25,1.45c-0.1,0.12-0.11,0.26,0.09,0.26h2.29c0,0,0.16,0.02,0.13-0.14l-0.09-0.73c0,0-0.01-0.11,0.12-0.11h1.21
				c0,0,0.07-0.01,0.08,0.1c0.01,0.16,0.05,1.26,0.17,1.46c0,0,0.08,0.13-0.05,0.13h-1.27c0,0-0.07-0.01-0.07,0.08v2.71
				c0,0,0,0.15,0.14,0.15h1.82c0.05,0,0.09,0.06,0,0.11c-0.11,0.07-0.42,0.53-0.42,0.53s-0.06,0.09-0.14,0.09h-2.02
				c0,0-0.94,0.02-0.92-1.17c0,0-0.01-1.37,0-1.42c0.01-0.09-0.09-0.12-0.15-0.05c0,0-1,1.54-1.33,2.05
				c-0.15,0.23-0.4,0.61-1.01,0.6c-0.26,0-0.98,0-1.02,0c-0.05,0-0.11-0.06-0.03-0.11c0.43-0.23,0.99-1.26,1.8-2.43
				c0.39-0.57,0.61-0.55,0.94-0.55h0.71c0,0,0.06,0,0.08-0.09v-0.44c0,0,0-0.06-0.08-0.06H67.6c0,0-0.33,0.02-0.48-0.33
				c-0.12-0.28,0.06-0.52,0.16-0.62c0.38-0.38,1.04-1.07,1.4-1.43c0.04-0.04,0.02-0.12-0.06-0.12c-0.32,0-1.28,0-1.28,0
				s-0.1,0.01-0.11-0.08c-0.02-0.12-0.16-0.46-0.18-0.51C67.02,38.62,67.01,38.61,67.1,38.61"/>
		</g>
		<path class="st1" d="M74.21,41.21h9.6c0.06,0,0.11,0.03,0.11,0.11v0.85c0,0,0.01,0.1-0.09,0.12h-9.38c0,0-0.13,0-0.14-0.17
			c-0.01-0.23-0.15-0.68-0.2-0.77C74.07,41.25,74.08,41.21,74.21,41.21"/>
		<g>
			<g>
				<g>
					<path class="st1" d="M105.22,42.17c-0.05,0-0.09,0.04-0.09,0.09v2.03c-0.02,1.18,0.92,1.16,0.92,1.16h1.33
						c0.08,0,0.14-0.09,0.14-0.09s0.36-0.46,0.46-0.52c0.09-0.05,0.05-0.1,0-0.11h-1.33c-0.14,0-0.14-0.15-0.14-0.15v-2.32
						c0-0.05-0.04-0.09-0.09-0.09H105.22z"/>
					<path class="st1" d="M103.34,45.33h1.08c0.05,0,0.09-0.04,0.09-0.09v-2.99c0-0.05-0.04-0.09-0.09-0.09h-1.08
						c-0.05,0-0.09,0.04-0.09,0.09v2.99C103.25,45.29,103.29,45.33,103.34,45.33z"/>
					<path class="st1" d="M100.19,43.22c0.08,0,0.08,0.06,0.04,0.1c-0.11,0.1-0.37,0.43-1.19,1.44c-0.45,0.55-0.61,0.67-0.98,0.67
						h-1.52c-0.05,0-0.08-0.08,0-0.13c0.21-0.13,1.14-1.07,1.62-1.73c0.29-0.38,0.46-0.36,0.74-0.36H100.19z"/>
					<path class="st1" d="M98.6,38.36h-1.72c0,0-0.06,0-0.07,0.04c-0.01,0.07,0.05,0.06,0.09,0.08c0.21,0.13,0.77,0.53,1.39,1.16
						c0.25,0.25,0.51,0.23,0.64,0.23h1.55c0.07,0,0.11-0.06,0.02-0.11c-0.34-0.18-0.86-0.72-1.06-0.87
						C99.24,38.73,98.84,38.36,98.6,38.36"/>
					<path class="st1" d="M98.6,40.79h-1.72c0,0-0.06,0-0.07,0.04c-0.01,0.07,0.05,0.06,0.09,0.08c0.21,0.13,0.77,0.53,1.39,1.16
						c0.25,0.25,0.51,0.23,0.64,0.23h1.55c0.07,0,0.11-0.06,0.02-0.11c-0.34-0.18-0.86-0.72-1.06-0.87
						C99.24,41.16,98.84,40.79,98.6,40.79"/>
				</g>
				<path class="st1" d="M102.6,42.16h-1.24c-0.05,0-0.09,0.04-0.09,0.09v0.43c0,0.27-0.02,1.72-1.2,2.59
					c-0.07,0.05-0.03,0.16,0.05,0.16h1.04c0.34,0,0.67-0.16,0.88-0.44c0.26-0.36,0.53-0.95,0.62-2.06c0.02-0.2,0.02-0.52,0.03-0.68
					C102.69,42.2,102.65,42.16,102.6,42.16z"/>
			</g>
			<path class="st1" d="M106.95,38.61h-2.09c-0.07,0-0.07-0.07-0.07-0.07v-0.5c0-0.07-0.07-0.06-0.07-0.06h-2.06
				c-0.07,0.01-0.06,0.06-0.06,0.06v0.44v0.06c0,0.05-0.07,0.07-0.07,0.07h-2.39c-0.09,0-0.08,0.02-0.06,0.08
				c0.03,0.06,0.17,0.39,0.18,0.51c0.01,0.1,0.11,0.08,0.11,0.08h1.58c0.14,0,0.11,0.08,0.06,0.12c0,0-1.26,1.05-1.7,1.42
				c-0.11,0.09-0.28,0.34-0.16,0.62c0.14,0.35,0.47,0.34,0.47,0.34h6.23c0.13,0,0.05-0.13,0.05-0.13c-0.13-0.2-0.16-1.3-0.17-1.45
				c-0.01-0.11-0.08-0.1-0.08-0.1h-1.21c-0.1,0-0.12,0.11-0.12,0.11l0.09,0.64c0.03,0.16-0.13,0.14-0.13,0.14h-3.03
				c-0.11,0.01-0.18-0.14-0.09-0.26c0.05-0.06,1.55-1.36,1.55-1.36c0.08-0.08,0.17-0.07,0.17-0.07h3.06c0.07,0,0.07-0.07,0.07-0.07
				v-0.56C107.01,38.59,106.95,38.61,106.95,38.61z"/>
		</g>
	</g>
	<g class="st5">
		<g>
			<path class="st1" d="M53.77,35.73H6.63c-1.7,0-3-1.54-2.7-3.22l2.71-15.34c0.42-2.38,2.49-4.11,4.9-4.11h47.14
				c1.7,0,3,1.54,2.7,3.22l-2.71,15.34C58.25,34,56.18,35.73,53.77,35.73z"/>
			<g>
				<path class="st2" d="M39.08,19.08c-0.22-1.78-1.45-3.07-3.22-3.36c-2.19-0.36-4.43,0.89-5.44,3.02l-6.96,14.69h2.01
					c0.25,0,0.48-0.15,0.59-0.37l6.34-13.38c0.7-1.58,2.06-1.96,3.1-1.79c0.29,0.05,1.25,0.29,1.39,1.46l0.68,5.58h-5.65
					c-0.26,0-0.49,0.15-0.6,0.39l-0.81,1.81h7.32l0.7,5.73c0.04,0.33,0.32,0.57,0.65,0.57h1.63L39.08,19.08z"/>
				<path class="st2" d="M54.29,16c-0.32,0-0.6,0.24-0.65,0.56c-0.13,0.92-0.37,2.58-0.7,4.53c-0.72,3.33-1.56,4.62-3.77,4.8
					c-0.65,0.05-2.24-0.02-2.95-1.78c-0.66-1.63-0.52-4.81-0.34-7.41c0.01-0.18-0.05-0.36-0.17-0.49C45.6,16.08,45.42,16,45.24,16
					h-1.7l-0.01,0.27c-0.15,3.57-0.22,7.22,0.78,9.21c1.01,2.03,3.16,2.56,4.44,2.56c0.09,0,0.17,0,0.25-0.01
					c1.11-0.06,2.01-0.33,2.76-0.84c-0.07,0.3-0.14,0.6-0.21,0.89c-0.81,3.34-2.19,3.97-7.36,3.39l-0.36-0.04l0.22,1.37
					c0.06,0.35,0.35,0.62,0.7,0.65c0.83,0.07,1.58,0.11,2.26,0.11c4.15,0,5.84-1.33,6.59-4.78c0.72-3.29,1.5-7.49,2.33-12.46
					L55.99,16H54.29z"/>
				<path class="st2" d="M10.34,33.42c0.32,0,0.59-0.23,0.64-0.54l2.07-11.89c0.32-1.87,1.95-3.24,3.85-3.24h3.46
					c0.89,0,1.75,0.35,2.2,0.88c0.49,0.59,0.68,1.39,0.53,2.25c-0.33,1.88-2.32,3.52-4.25,3.52h-4.19c-0.32,0-0.59,0.23-0.64,0.54
					l-0.28,1.65h5.37c2.95,0,5.77-2.39,6.29-5.33c0.27-1.52-0.09-2.95-1.01-4.05c-0.9-1.08-2.22-1.67-3.72-1.67h-4.01
					c-2.79,0-5.18,2-5.66,4.75L8.66,33.42H10.34z"/>
			</g>
		</g>
		<g>
			<g>
				<path class="st1" d="M107.02,13.01c-1.28,0-2.39-0.49-3.13-1.37c-0.76-0.91-1.05-2.13-0.82-3.44c0.48-2.74,3.1-4.97,5.84-4.97
					c1.28,0,2.39,0.49,3.13,1.37c0.76,0.91,1.05,2.13,0.82,3.44C112.38,10.78,109.76,13.01,107.02,13.01z"/>
			</g>
			<g>
				<polygon class="st1" points="98.4,15.22 96.24,27.45 89.41,15.22 85.4,15.22 82.1,33.94 86.11,33.94 88.13,22.49 95.09,33.94 
					99.11,33.94 102.41,15.22 				"/>
				<path class="st1" d="M77.91,15.22l-1.84,10.43c-0.46,2.59-2.78,5.18-5.59,5.18c-1.08,0-1.88-0.4-2.49-1.13
					c-0.63-0.76-1.09-1.81-0.81-3.33l1.97-11.15h-4.19l-1.84,10.43c-0.41,2.32,0.17,4.61,1.58,6.3c1.41,1.68,3.47,2.61,5.79,2.61
					c4.53,0,8.86-3.67,9.66-8.19l1.97-11.15H77.91z"/>
				<path class="st1" d="M107.06,15.3c-0.09,0-0.18,0.01-0.27,0.01c-0.32,0-0.64-0.02-0.94-0.06l-3.3,18.71h4.01l3.41-19.34
					C109.06,15.01,108.07,15.26,107.06,15.3z"/>
			</g>
		</g>
	</g>
</g>
<g class="st4">
	<g class="st5">
		<path class="st1" d="M95.64,45.37v-0.66c0-0.06-0.04-0.08-0.09-0.08h-2.26H93.2c-0.02,0-0.02-0.03-0.01-0.04
			c0.01-0.01,0.01-0.01,0.02-0.02c0,0,0,0,0.01-0.01c0.6-0.69,1.2-1.12,1.41-1.28c0.04-0.03,0.09-0.05,0.09-0.1
			c0-0.04-0.04-0.04-0.07-0.04c-0.41,0-1.12,0-1.53,0c-0.13,0-0.21,0.01-0.27,0.04c-0.23,0.12-0.51,0.4-0.67,0.54
			c-0.16,0.14-0.57,0.56-0.89,0.82c-0.04,0.03-0.1,0-0.1-0.05v-1.76c0-0.03,0.03-0.06,0.06-0.06h3.6c0.07-0.01,0.06-0.08,0.06-0.08
			v-0.59c0-0.05-0.03-0.07-0.08-0.07h-3.58c-0.03,0-0.06-0.03-0.06-0.06v-0.83c0-0.03,0.03-0.06,0.06-0.06h4.2
			c0.18,0,0.29-0.21,0.19-0.36l-1.51-2.25c-0.12-0.18-0.33-0.29-0.55-0.29h-0.11h-1.39h-3.26h-1.35h-0.01
			c-0.31,0-0.59,0.16-0.76,0.42l-1.73,2.74c-0.02,0.04,0,0.09,0.05,0.09h1.15c0.37,0,0.71-0.19,0.91-0.5l1.26-1.99
			c0.02-0.03,0.06-0.05,0.1-0.05h4.04c0.04,0,0.07,0.02,0.1,0.05l0.83,1.24c0.03,0.04,0,0.09-0.05,0.09h-5.5
			c-0.1,0-0.11,0.04-0.08,0.1c0.03,0.07,0.14,0.42,0.15,0.6c0.01,0.11,0.06,0.13,0.11,0.13h1.64c0.03,0,0.06,0.03,0.06,0.06v0.83
			c0,0.03-0.03,0.06-0.06,0.06H86c-0.09,0-0.1,0.03-0.07,0.09c0.03,0.06,0.13,0.38,0.14,0.54c0.01,0.09,0.06,0.12,0.1,0.12h3.52
			c0.03,0,0.06,0.03,0.06,0.06v1.76c0,0.05-0.06,0.08-0.09,0.05c-0.32-0.26-0.73-0.68-0.89-0.82c-0.15-0.14-0.43-0.41-0.67-0.54
			c-0.05-0.03-0.14-0.04-0.27-0.04c-0.41,0-1.12,0-1.53,0c-0.03,0-0.07,0-0.07,0.04c0,0.04,0.05,0.07,0.09,0.1
			c0.21,0.16,0.81,0.59,1.41,1.28c0,0,0,0,0,0c0.01,0.01,0.02,0.02,0.02,0.03c0.01,0.01,0.02,0.04-0.01,0.04h-0.09h-2.32
			c-0.1,0-0.11,0.04-0.08,0.1c0.03,0.07,0.14,0.42,0.15,0.6c0.01,0.12,0.06,0.13,0.11,0.13c2.52,0,10.06,0,10.06,0
			C95.65,45.45,95.64,45.37,95.64,45.37z"/>
		<g>
			<path class="st1" d="M64.75,38.04c0,0,0.04-0.05,0.11-0.05h1.62c0,0,0.06,0.02,0,0.07c0,0-1.64,1.36-2.23,1.85
				c-0.09,0.08-0.15,0.13-0.13,0.19c0.02,0.05,0.07,0.06,0.15,0.06h2.47c0,0,0.08,0,0.08,0.07c0,0,0,0.31,0,0.42
				c0,0.08-0.05,0.12-0.11,0.15c0,0-1.59,1.05-2.19,1.45c-0.01,0.01-0.08,0.05-0.07,0.09c0.01,0.04,0.05,0.04,0.1,0.04
				c0.52,0,2.09,0,2.09,0s0.1,0.02,0.04,0.15c-0.06,0.13-0.06,0.21-0.06,0.31c0,0,0,1.46,0,1.97c0,0.25-0.1,0.57-0.6,0.69
				c-0.68,0.13-1.83-0.23-2.3-0.25c-0.46-0.03-0.91,0.01-1.28,0.25c0,0-0.1,0.01-0.04-0.08c0.06-0.09,0.13-0.32,0.12-1.07
				c0,0,0-0.12,0.09-0.13c0.09-0.01,1.51-0.21,2.41,0.13c0.25,0.1,0.31-0.09,0.31-0.23v-1.01c0,0-0.02-0.08-0.09-0.08h-2.5
				c0,0-0.32,0.06-0.41-0.26c-0.1-0.34,0.17-0.48,0.26-0.53l1.94-1.37c0,0,0.02-0.06-0.07-0.06h-1.68c0,0-0.38,0.03-0.47-0.32
				c-0.08-0.31,0.07-0.57,0.23-0.67L64.75,38.04z"/>
			<path class="st1" d="M67.1,38.61h2.1c0,0,0.07-0.01,0.07-0.07v-0.06v-0.44c0,0-0.01-0.05,0.06-0.06h2.07c0,0,0.07-0.01,0.07,0.06
				v0.5c0,0,0,0.07,0.07,0.07h1.64c0,0,0.07-0.01,0.07,0.05v0.57c0,0,0,0.07-0.07,0.07h-2.65c0,0-0.07-0.01-0.13,0.07
				c0,0-1.2,1.39-1.25,1.45c-0.1,0.12-0.11,0.26,0.09,0.26h2.29c0,0,0.16,0.02,0.13-0.14l-0.09-0.73c0,0-0.01-0.11,0.12-0.11h1.21
				c0,0,0.07-0.01,0.08,0.1c0.01,0.16,0.05,1.26,0.17,1.46c0,0,0.08,0.13-0.05,0.13h-1.27c0,0-0.07-0.01-0.07,0.08v2.71
				c0,0,0,0.15,0.14,0.15h1.82c0.05,0,0.09,0.06,0,0.11c-0.11,0.07-0.42,0.53-0.42,0.53s-0.06,0.09-0.14,0.09h-2.02
				c0,0-0.94,0.02-0.92-1.17c0,0-0.01-1.37,0-1.42c0.01-0.09-0.09-0.12-0.15-0.05c0,0-1,1.54-1.33,2.05
				c-0.15,0.23-0.4,0.61-1.01,0.6c-0.26,0-0.98,0-1.02,0c-0.05,0-0.11-0.06-0.03-0.11c0.43-0.23,0.99-1.26,1.8-2.43
				c0.39-0.57,0.61-0.55,0.94-0.55h0.71c0,0,0.06,0,0.08-0.09v-0.44c0,0,0-0.06-0.08-0.06H67.6c0,0-0.33,0.02-0.48-0.33
				c-0.12-0.28,0.06-0.52,0.16-0.62c0.38-0.38,1.04-1.07,1.4-1.43c0.04-0.04,0.02-0.12-0.06-0.12c-0.32,0-1.28,0-1.28,0
				s-0.1,0.01-0.11-0.08c-0.02-0.12-0.16-0.46-0.18-0.51C67.02,38.62,67.01,38.61,67.1,38.61"/>
		</g>
		<path class="st1" d="M74.21,41.21h9.59c0.06,0,0.11,0.03,0.11,0.11v0.85c0,0,0.01,0.1-0.09,0.12h-9.38c0,0-0.13,0-0.14-0.17
			c-0.01-0.23-0.15-0.68-0.2-0.78C74.07,41.25,74.08,41.21,74.21,41.21"/>
		<g>
			<g>
				<g>
					<path class="st1" d="M105.22,42.17c-0.05,0-0.09,0.04-0.09,0.09v2.03c-0.02,1.18,0.92,1.16,0.92,1.16h1.33
						c0.08,0,0.14-0.09,0.14-0.09s0.36-0.46,0.46-0.52c0.09-0.05,0.05-0.1,0-0.11h-1.33c-0.14,0-0.14-0.15-0.14-0.15v-2.32
						c0-0.05-0.04-0.09-0.09-0.09H105.22z"/>
					<path class="st1" d="M103.34,45.33h1.08c0.05,0,0.09-0.04,0.09-0.09v-2.99c0-0.05-0.04-0.09-0.09-0.09h-1.08
						c-0.05,0-0.09,0.04-0.09,0.09v2.99C103.25,45.29,103.29,45.33,103.34,45.33z"/>
					<path class="st1" d="M100.19,43.22c0.08,0,0.08,0.06,0.04,0.1c-0.11,0.1-0.37,0.43-1.19,1.44c-0.45,0.55-0.61,0.67-0.98,0.67
						h-1.52c-0.05,0-0.08-0.08,0-0.13c0.21-0.13,1.14-1.07,1.62-1.73c0.29-0.38,0.46-0.36,0.74-0.36H100.19z"/>
					<path class="st1" d="M98.6,38.36h-1.72c0,0-0.06,0-0.07,0.04c-0.01,0.07,0.05,0.06,0.09,0.08c0.21,0.13,0.77,0.53,1.39,1.16
						c0.25,0.25,0.51,0.23,0.64,0.23h1.55c0.07,0,0.11-0.06,0.02-0.11c-0.34-0.18-0.86-0.72-1.06-0.87
						C99.24,38.73,98.84,38.36,98.6,38.36"/>
					<path class="st1" d="M98.6,40.79h-1.72c0,0-0.06,0-0.07,0.04c-0.01,0.07,0.05,0.06,0.09,0.08c0.21,0.13,0.77,0.53,1.39,1.16
						c0.25,0.25,0.51,0.23,0.64,0.23h1.55c0.07,0,0.11-0.06,0.02-0.11c-0.34-0.18-0.86-0.72-1.06-0.87
						C99.24,41.16,98.84,40.79,98.6,40.79"/>
				</g>
				<path class="st1" d="M102.6,42.16h-1.24c-0.05,0-0.09,0.04-0.09,0.09v0.43c0,0.27-0.02,1.72-1.2,2.59
					c-0.07,0.05-0.03,0.16,0.05,0.16h1.04c0.34,0,0.67-0.16,0.88-0.44c0.26-0.36,0.53-0.95,0.62-2.06c0.02-0.2,0.02-0.52,0.03-0.68
					C102.69,42.2,102.65,42.16,102.6,42.16z"/>
			</g>
			<path class="st1" d="M106.95,38.61h-2.09c-0.07,0-0.07-0.07-0.07-0.07v-0.5c0-0.07-0.07-0.06-0.07-0.06h-2.06
				c-0.07,0.01-0.06,0.06-0.06,0.06v0.44v0.06c0,0.05-0.07,0.07-0.07,0.07h-2.39c-0.09,0-0.08,0.02-0.06,0.08
				c0.03,0.06,0.17,0.39,0.18,0.51c0.01,0.1,0.11,0.08,0.11,0.08h1.58c0.14,0,0.11,0.08,0.06,0.12c0,0-1.26,1.05-1.7,1.42
				c-0.11,0.09-0.28,0.34-0.16,0.62c0.14,0.35,0.47,0.34,0.47,0.34h6.23c0.13,0,0.05-0.13,0.05-0.13c-0.13-0.2-0.16-1.3-0.17-1.45
				c-0.01-0.11-0.08-0.1-0.08-0.1h-1.21c-0.1,0-0.12,0.11-0.12,0.11l0.09,0.64c0.03,0.16-0.13,0.14-0.13,0.14h-3.03
				c-0.11,0.01-0.18-0.14-0.09-0.26c0.05-0.06,1.55-1.36,1.55-1.36c0.08-0.08,0.17-0.07,0.17-0.07h3.06c0.07,0,0.07-0.07,0.07-0.07
				v-0.56C107.01,38.59,106.95,38.61,106.95,38.61z"/>
		</g>
	</g>
	<g class="st5">
		<g>
			<path class="st1" d="M53.77,35.73H6.63c-1.7,0-3-1.54-2.7-3.22l2.71-15.34c0.42-2.38,2.49-4.11,4.9-4.11h47.14
				c1.7,0,3,1.54,2.7,3.22l-2.71,15.34C58.25,34,56.18,35.73,53.77,35.73z"/>
			<g>
				<path class="st6" d="M39.08,19.08c-0.22-1.78-1.45-3.07-3.22-3.36c-2.19-0.36-4.43,0.89-5.44,3.02l-6.96,14.69h2.01
					c0.25,0,0.48-0.15,0.59-0.37l6.34-13.38c0.7-1.58,2.06-1.96,3.1-1.79c0.29,0.05,1.25,0.29,1.39,1.46l0.68,5.58h-5.65
					c-0.26,0-0.49,0.15-0.6,0.39l-0.81,1.81h7.32l0.7,5.73c0.04,0.33,0.32,0.57,0.65,0.57h1.63L39.08,19.08z"/>
				<path class="st6" d="M54.29,16c-0.32,0-0.6,0.24-0.65,0.56c-0.13,0.92-0.37,2.58-0.7,4.53c-0.72,3.33-1.56,4.62-3.77,4.8
					c-0.65,0.05-2.24-0.02-2.95-1.78c-0.66-1.63-0.52-4.81-0.34-7.41c0.01-0.18-0.05-0.36-0.17-0.49C45.6,16.08,45.42,16,45.24,16
					h-1.7l-0.01,0.27c-0.15,3.57-0.22,7.22,0.78,9.21c1.01,2.03,3.16,2.56,4.44,2.56c0.09,0,0.17,0,0.25-0.01
					c1.11-0.06,2.01-0.33,2.76-0.84c-0.07,0.3-0.14,0.6-0.21,0.89c-0.81,3.34-2.19,3.97-7.36,3.39l-0.36-0.04l0.22,1.37
					c0.06,0.35,0.35,0.62,0.7,0.65c0.83,0.07,1.58,0.11,2.26,0.11c4.15,0,5.84-1.33,6.59-4.78c0.72-3.29,1.5-7.49,2.33-12.46
					L55.99,16H54.29z"/>
				<path class="st6" d="M10.34,33.42c0.32,0,0.59-0.23,0.64-0.54l2.07-11.89c0.32-1.87,1.95-3.24,3.85-3.24h3.46
					c0.89,0,1.75,0.35,2.2,0.88c0.49,0.59,0.68,1.39,0.53,2.25c-0.33,1.88-2.32,3.52-4.25,3.52h-4.19c-0.32,0-0.59,0.23-0.64,0.54
					l-0.28,1.65h5.37c2.95,0,5.77-2.39,6.29-5.33c0.27-1.52-0.09-2.95-1.01-4.05c-0.9-1.08-2.22-1.67-3.72-1.67h-4.01
					c-2.79,0-5.18,2-5.66,4.75L8.66,33.42H10.34z"/>
			</g>
		</g>
		<g>
			<g>
				<path class="st2" d="M107.02,13.01c-1.28,0-2.39-0.49-3.13-1.37c-0.76-0.91-1.05-2.13-0.82-3.44c0.48-2.74,3.1-4.97,5.84-4.97
					c1.28,0,2.39,0.49,3.13,1.37c0.76,0.91,1.05,2.13,0.82,3.44C112.38,10.78,109.76,13.01,107.02,13.01z"/>
			</g>
			<g>
				<polygon class="st1" points="98.4,15.22 96.24,27.45 89.41,15.22 85.4,15.22 82.1,33.94 86.11,33.94 88.13,22.49 95.09,33.94 
					99.11,33.94 102.41,15.22 				"/>
				<path class="st1" d="M77.91,15.22l-1.84,10.43c-0.46,2.59-2.78,5.18-5.59,5.18c-1.08,0-1.88-0.4-2.49-1.13
					c-0.63-0.76-1.09-1.81-0.81-3.34l1.97-11.15h-4.19l-1.84,10.43c-0.41,2.32,0.17,4.61,1.58,6.3c1.41,1.68,3.47,2.61,5.79,2.61
					c4.53,0,8.86-3.67,9.66-8.19l1.97-11.15H77.91z"/>
				<path class="st1" d="M107.06,15.3c-0.09,0-0.18,0.01-0.27,0.01c-0.32,0-0.64-0.02-0.94-0.06l-3.3,18.71h4.01l3.41-19.34
					C109.06,15.01,108.07,15.26,107.06,15.3z"/>
			</g>
		</g>
	</g>
</g>
<g class="st4">
	<g class="st5">
		<g>
			<path class="st0" d="M53.77,40.68H6.63c-1.7,0-3-1.54-2.7-3.22l2.71-15.34C7.05,19.74,9.12,18,11.53,18h47.14
				c1.7,0,3,1.54,2.7,3.22l-2.71,15.34C58.25,38.94,56.18,40.68,53.77,40.68z"/>
			<g>
				<path class="st1" d="M39.08,24.02c-0.22-1.78-1.45-3.07-3.22-3.36c-2.19-0.36-4.43,0.89-5.44,3.02l-6.96,14.69h2.01
					c0.25,0,0.48-0.15,0.59-0.37l6.34-13.38c0.7-1.58,2.06-1.96,3.1-1.79c0.29,0.05,1.25,0.29,1.39,1.46l0.68,5.58h-5.65
					c-0.26,0-0.49,0.15-0.6,0.39l-0.81,1.81h7.32l0.7,5.73c0.04,0.33,0.32,0.57,0.65,0.57h1.63L39.08,24.02z"/>
				<path class="st1" d="M54.29,20.95c-0.32,0-0.6,0.24-0.65,0.56c-0.13,0.92-0.37,2.58-0.7,4.53c-0.72,3.33-1.56,4.62-3.77,4.8
					c-0.65,0.05-2.24-0.02-2.95-1.78c-0.66-1.63-0.52-4.81-0.34-7.41c0.01-0.18-0.05-0.36-0.17-0.49c-0.12-0.13-0.3-0.21-0.48-0.21
					h-1.7l-0.01,0.27c-0.15,3.57-0.22,7.22,0.78,9.21c1.01,2.03,3.16,2.56,4.44,2.56c0.09,0,0.17,0,0.25-0.01
					c1.11-0.06,2.01-0.33,2.76-0.84c-0.07,0.3-0.14,0.6-0.21,0.89c-0.81,3.34-2.19,3.97-7.36,3.39l-0.36-0.04l0.22,1.37
					c0.06,0.35,0.35,0.62,0.7,0.65c0.83,0.07,1.58,0.11,2.26,0.11c4.15,0,5.84-1.33,6.59-4.78c0.72-3.29,1.5-7.49,2.33-12.46
					l0.05-0.32H54.29z"/>
				<path class="st1" d="M10.34,38.37c0.32,0,0.59-0.23,0.64-0.54l2.07-11.89c0.32-1.87,1.95-3.24,3.85-3.24h3.46
					c0.89,0,1.75,0.35,2.2,0.88c0.49,0.59,0.68,1.39,0.53,2.25c-0.33,1.88-2.32,3.52-4.25,3.52h-4.19c-0.32,0-0.59,0.23-0.64,0.54
					l-0.28,1.65h5.37c2.95,0,5.77-2.39,6.29-5.33c0.27-1.52-0.09-2.95-1.01-4.05c-0.9-1.08-2.22-1.67-3.72-1.67h-4.01
					c-2.79,0-5.18,2-5.66,4.75L8.66,38.37H10.34z"/>
			</g>
		</g>
		<g>
			<g>
				<path class="st2" d="M107.02,17.96c-1.28,0-2.39-0.49-3.13-1.37c-0.76-0.91-1.05-2.13-0.82-3.44c0.48-2.74,3.1-4.97,5.84-4.97
					c1.28,0,2.39,0.49,3.13,1.37c0.76,0.91,1.05,2.13,0.82,3.44C112.38,15.73,109.76,17.96,107.02,17.96z"/>
			</g>
			<g>
				<polygon class="st3" points="98.4,20.17 96.24,32.4 89.41,20.17 85.4,20.17 82.1,38.89 86.11,38.89 88.13,27.44 95.09,38.89 
					99.11,38.89 102.41,20.17 				"/>
				<path class="st3" d="M77.91,20.17L76.07,30.6c-0.46,2.59-2.78,5.18-5.59,5.18c-1.08,0-1.88-0.4-2.49-1.13
					c-0.63-0.76-1.09-1.81-0.81-3.34l1.97-11.15h-4.19L63.11,30.6c-0.41,2.32,0.17,4.61,1.58,6.3c1.41,1.68,3.47,2.61,5.79,2.61
					c4.53,0,8.86-3.67,9.66-8.19l1.97-11.15H77.91z"/>
				<path class="st3" d="M107.06,20.24c-0.09,0-0.18,0-0.27,0c-0.32,0-0.64-0.02-0.94-0.06l-3.3,18.71h4.01l3.41-19.34
					C109.06,19.96,108.07,20.2,107.06,20.24z"/>
			</g>
		</g>
	</g>
</g>
<g class="st4">
	<g class="st5">
		<g>
			<path class="st1" d="M53.77,40.68H6.63c-1.7,0-3-1.54-2.7-3.22l2.71-15.34C7.05,19.74,9.12,18,11.53,18h47.14
				c1.7,0,3,1.54,2.7,3.22l-2.71,15.34C58.25,38.94,56.18,40.68,53.77,40.68z"/>
			<g>
				<path class="st0" d="M39.08,24.02c-0.22-1.78-1.45-3.07-3.22-3.36c-2.19-0.36-4.43,0.89-5.44,3.02l-6.96,14.69h2.01
					c0.25,0,0.48-0.15,0.59-0.37l6.34-13.38c0.7-1.58,2.06-1.96,3.1-1.79c0.29,0.05,1.25,0.29,1.39,1.46l0.68,5.58h-5.65
					c-0.26,0-0.49,0.15-0.6,0.39l-0.81,1.81h7.32l0.7,5.73c0.04,0.33,0.32,0.57,0.65,0.57h1.63L39.08,24.02z"/>
				<path class="st0" d="M54.29,20.95c-0.32,0-0.6,0.24-0.65,0.56c-0.13,0.92-0.37,2.58-0.7,4.53c-0.72,3.33-1.56,4.62-3.77,4.8
					c-0.65,0.05-2.24-0.02-2.95-1.78c-0.66-1.63-0.52-4.81-0.34-7.41c0.01-0.18-0.05-0.36-0.17-0.49c-0.12-0.13-0.3-0.21-0.48-0.21
					h-1.7l-0.01,0.27c-0.15,3.57-0.22,7.22,0.78,9.21c1.01,2.03,3.16,2.56,4.44,2.56c0.09,0,0.17,0,0.25-0.01
					c1.11-0.06,2.01-0.33,2.76-0.84c-0.07,0.3-0.14,0.6-0.21,0.89c-0.81,3.34-2.19,3.97-7.36,3.39l-0.36-0.04l0.22,1.37
					c0.06,0.35,0.35,0.62,0.7,0.65c0.83,0.07,1.58,0.11,2.26,0.11c4.15,0,5.84-1.33,6.59-4.78c0.72-3.29,1.5-7.49,2.33-12.46
					l0.05-0.32H54.29z"/>
				<path class="st0" d="M10.34,38.37c0.32,0,0.59-0.23,0.64-0.54l2.07-11.89c0.32-1.87,1.95-3.24,3.85-3.24h3.46
					c0.89,0,1.75,0.35,2.2,0.88c0.49,0.59,0.68,1.39,0.53,2.25c-0.33,1.88-2.32,3.52-4.25,3.52h-4.19c-0.32,0-0.59,0.23-0.64,0.54
					l-0.28,1.65h5.37c2.95,0,5.77-2.39,6.29-5.33c0.27-1.52-0.09-2.95-1.01-4.05c-0.9-1.08-2.22-1.67-3.72-1.67l-4.01,0
					c-2.79,0-5.18,2-5.66,4.75L8.66,38.37H10.34z"/>
			</g>
		</g>
		<g>
			<g>
				<path class="st2" d="M107.02,17.96c-1.28,0-2.39-0.49-3.13-1.37c-0.76-0.91-1.05-2.13-0.82-3.44c0.48-2.74,3.1-4.97,5.84-4.97
					c1.28,0,2.39,0.49,3.13,1.37c0.76,0.91,1.05,2.13,0.82,3.44C112.38,15.73,109.76,17.96,107.02,17.96z"/>
			</g>
			<g>
				<polygon class="st1" points="98.4,20.17 96.24,32.4 89.41,20.17 85.4,20.17 82.1,38.89 86.11,38.89 88.13,27.44 95.09,38.89 
					99.11,38.89 102.41,20.17 				"/>
				<path class="st1" d="M77.91,20.17L76.07,30.6c-0.46,2.59-2.78,5.18-5.59,5.18c-1.08,0-1.88-0.4-2.49-1.13
					c-0.63-0.76-1.09-1.81-0.81-3.34l1.97-11.15h-4.19L63.11,30.6c-0.41,2.32,0.17,4.61,1.58,6.3c1.41,1.68,3.47,2.61,5.79,2.61
					c4.53,0,8.86-3.67,9.66-8.19l1.97-11.15H77.91z"/>
				<path class="st1" d="M107.06,20.24c-0.09,0-0.18,0-0.27,0c-0.32,0-0.64-0.02-0.94-0.06l-3.3,18.71h4.01l3.41-19.34
					C109.06,19.96,108.07,20.2,107.06,20.24z"/>
			</g>
		</g>
	</g>
</g>
<g class="st4">
	<g class="st5">
		<g>
			<path class="st1" d="M53.77,40.68H6.63c-1.7,0-3-1.54-2.7-3.22l2.71-15.34C7.05,19.74,9.12,18,11.53,18h47.14
				c1.7,0,3,1.54,2.7,3.22l-2.71,15.34C58.25,38.94,56.18,40.68,53.77,40.68z"/>
			<g>
				<path class="st3" d="M39.08,24.02c-0.22-1.78-1.45-3.07-3.22-3.36c-2.19-0.36-4.43,0.89-5.44,3.02l-6.96,14.69h2.01
					c0.25,0,0.48-0.15,0.59-0.37l6.34-13.38c0.7-1.58,2.06-1.96,3.1-1.79c0.29,0.05,1.25,0.29,1.39,1.46l0.68,5.58h-5.65
					c-0.26,0-0.49,0.15-0.6,0.39l-0.81,1.81h7.32l0.7,5.73c0.04,0.33,0.32,0.57,0.65,0.57h1.63L39.08,24.02z"/>
				<path class="st3" d="M54.29,20.95c-0.32,0-0.6,0.24-0.65,0.56c-0.13,0.92-0.37,2.58-0.7,4.53c-0.72,3.33-1.56,4.62-3.77,4.8
					c-0.65,0.05-2.24-0.02-2.95-1.78c-0.66-1.63-0.52-4.81-0.34-7.41c0.01-0.18-0.05-0.36-0.17-0.49c-0.12-0.13-0.3-0.21-0.48-0.21
					h-1.7l-0.01,0.27c-0.15,3.57-0.22,7.22,0.78,9.21c1.01,2.03,3.16,2.56,4.44,2.56c0.09,0,0.17,0,0.25-0.01
					c1.11-0.06,2.01-0.33,2.76-0.84c-0.07,0.3-0.14,0.6-0.21,0.89c-0.81,3.34-2.19,3.97-7.36,3.39l-0.36-0.04l0.22,1.37
					c0.06,0.35,0.35,0.62,0.7,0.65c0.83,0.07,1.58,0.11,2.26,0.11c4.15,0,5.84-1.33,6.59-4.78c0.72-3.29,1.5-7.49,2.33-12.46
					l0.05-0.32H54.29z"/>
				<path class="st3" d="M10.34,38.37c0.32,0,0.59-0.23,0.64-0.54l2.07-11.89c0.32-1.87,1.95-3.24,3.85-3.24h3.46
					c0.89,0,1.75,0.35,2.2,0.88c0.49,0.59,0.68,1.39,0.53,2.25c-0.33,1.88-2.32,3.52-4.25,3.52h-4.19c-0.32,0-0.59,0.23-0.64,0.54
					l-0.28,1.65h5.37c2.95,0,5.77-2.39,6.29-5.33c0.27-1.52-0.09-2.95-1.01-4.05c-0.9-1.08-2.22-1.67-3.72-1.67h-4.01
					c-2.79,0-5.18,2-5.66,4.75L8.66,38.37H10.34z"/>
			</g>
		</g>
		<g>
			<g>
				<path class="st2" d="M107.02,17.96c-1.28,0-2.39-0.49-3.13-1.37c-0.76-0.91-1.05-2.13-0.82-3.44c0.48-2.74,3.1-4.97,5.84-4.97
					c1.28,0,2.39,0.49,3.13,1.37c0.76,0.91,1.05,2.13,0.82,3.44C112.38,15.73,109.76,17.96,107.02,17.96z"/>
			</g>
			<g>
				<polygon class="st1" points="98.4,20.17 96.24,32.4 89.41,20.17 85.4,20.17 82.1,38.89 86.11,38.89 88.13,27.44 95.09,38.89 
					99.11,38.89 102.41,20.17 				"/>
				<path class="st1" d="M77.91,20.17L76.07,30.6c-0.46,2.59-2.78,5.18-5.59,5.18c-1.08,0-1.88-0.4-2.49-1.13
					c-0.63-0.76-1.09-1.81-0.81-3.34l1.97-11.15h-4.19L63.11,30.6c-0.41,2.32,0.17,4.61,1.58,6.3c1.41,1.68,3.47,2.61,5.79,2.61
					c4.53,0,8.86-3.67,9.66-8.19l1.97-11.15H77.91z"/>
				<path class="st1" d="M107.06,20.24c-0.09,0-0.18,0-0.27,0c-0.32,0-0.64-0.02-0.94-0.06l-3.3,18.71h4.01l3.41-19.34
					C109.06,19.96,108.07,20.2,107.06,20.24z"/>
			</g>
		</g>
	</g>
</g>
<g class="st4">
	<g class="st5">
		<g>
			<path class="st1" d="M53.77,40.68H6.63c-1.7,0-3-1.54-2.7-3.22l2.71-15.34C7.05,19.74,9.12,18,11.53,18h47.14
				c1.7,0,3,1.54,2.7,3.22l-2.71,15.34C58.25,38.94,56.18,40.68,53.77,40.68z"/>
			<g>
				<path class="st2" d="M39.08,24.02c-0.22-1.78-1.45-3.07-3.22-3.36c-2.19-0.36-4.43,0.89-5.44,3.02l-6.96,14.69h2.01
					c0.25,0,0.48-0.15,0.59-0.37l6.34-13.38c0.7-1.58,2.06-1.96,3.1-1.79c0.29,0.05,1.25,0.29,1.39,1.46l0.68,5.58h-5.65
					c-0.26,0-0.49,0.15-0.6,0.39l-0.81,1.81h7.32l0.7,5.73c0.04,0.33,0.32,0.57,0.65,0.57h1.63L39.08,24.02z"/>
				<path class="st2" d="M54.29,20.95c-0.32,0-0.6,0.24-0.65,0.56c-0.13,0.92-0.37,2.58-0.7,4.53c-0.72,3.33-1.56,4.62-3.77,4.8
					c-0.65,0.05-2.24-0.02-2.95-1.78c-0.66-1.63-0.52-4.81-0.34-7.41c0.01-0.18-0.05-0.36-0.17-0.49c-0.12-0.13-0.3-0.21-0.48-0.21
					h-1.7l-0.01,0.27c-0.15,3.57-0.22,7.22,0.78,9.21c1.01,2.03,3.16,2.56,4.44,2.56c0.09,0,0.17,0,0.25-0.01
					c1.11-0.06,2.01-0.33,2.76-0.84c-0.07,0.3-0.14,0.6-0.21,0.89c-0.81,3.34-2.19,3.97-7.36,3.39l-0.36-0.04l0.22,1.37
					c0.06,0.35,0.35,0.62,0.7,0.65c0.83,0.07,1.58,0.11,2.26,0.11c4.15,0,5.84-1.33,6.59-4.78c0.72-3.29,1.5-7.49,2.33-12.46
					l0.05-0.32H54.29z"/>
				<path class="st2" d="M10.34,38.37c0.32,0,0.59-0.23,0.64-0.54l2.07-11.89c0.32-1.87,1.95-3.24,3.85-3.24h3.46
					c0.89,0,1.75,0.35,2.2,0.88c0.49,0.59,0.68,1.39,0.53,2.25c-0.33,1.88-2.32,3.52-4.25,3.52h-4.19c-0.32,0-0.59,0.23-0.64,0.54
					l-0.28,1.65h5.37c2.95,0,5.77-2.39,6.29-5.33c0.27-1.52-0.09-2.95-1.01-4.05c-0.9-1.08-2.22-1.67-3.72-1.67l-4.01,0
					c-2.79,0-5.18,2-5.66,4.75L8.66,38.37H10.34z"/>
			</g>
		</g>
		<g>
			<g>
				<path class="st1" d="M107.02,17.96c-1.28,0-2.39-0.49-3.13-1.37c-0.76-0.91-1.05-2.13-0.82-3.44c0.48-2.74,3.1-4.97,5.84-4.97
					c1.28,0,2.39,0.49,3.13,1.37c0.76,0.91,1.05,2.13,0.82,3.44C112.38,15.73,109.76,17.96,107.02,17.96z"/>
			</g>
			<g>
				<polygon class="st1" points="98.4,20.17 96.24,32.4 89.41,20.17 85.4,20.17 82.1,38.89 86.11,38.89 88.13,27.44 95.09,38.89 
					99.11,38.89 102.41,20.17 				"/>
				<path class="st1" d="M77.91,20.17L76.07,30.6c-0.46,2.59-2.78,5.18-5.59,5.18c-1.08,0-1.88-0.4-2.49-1.13
					c-0.63-0.76-1.09-1.81-0.81-3.34l1.97-11.15h-4.19L63.11,30.6c-0.41,2.32,0.17,4.61,1.58,6.3c1.41,1.68,3.47,2.61,5.79,2.61
					c4.53,0,8.86-3.67,9.66-8.19l1.97-11.15H77.91z"/>
				<path class="st1" d="M107.06,20.24c-0.09,0-0.18,0.01-0.27,0.01c-0.32,0-0.64-0.02-0.94-0.06l-3.3,18.71h4.01l3.41-19.34
					C109.06,19.96,108.07,20.2,107.06,20.24z"/>
			</g>
		</g>
	</g>
</g>
<g class="st4">
	<g class="st5">
		<g>
			<path class="st1" d="M53.77,40.68H6.63c-1.7,0-3-1.54-2.7-3.22l2.71-15.34C7.05,19.74,9.12,18,11.53,18h47.14
				c1.7,0,3,1.54,2.7,3.22l-2.71,15.34C58.25,38.94,56.18,40.68,53.77,40.68z"/>
			<g>
				<path class="st6" d="M39.08,24.02c-0.22-1.78-1.45-3.07-3.22-3.36c-2.19-0.36-4.43,0.89-5.44,3.02l-6.96,14.69h2.01
					c0.25,0,0.48-0.15,0.59-0.37l6.34-13.38c0.7-1.58,2.06-1.96,3.1-1.79c0.29,0.05,1.25,0.29,1.39,1.46l0.68,5.58h-5.65
					c-0.26,0-0.49,0.15-0.6,0.39l-0.81,1.81h7.32l0.7,5.73c0.04,0.33,0.32,0.57,0.65,0.57h1.63L39.08,24.02z"/>
				<path class="st6" d="M54.29,20.95c-0.32,0-0.6,0.24-0.65,0.56c-0.13,0.92-0.37,2.58-0.7,4.53c-0.72,3.33-1.56,4.62-3.77,4.8
					c-0.65,0.05-2.24-0.02-2.95-1.78c-0.66-1.63-0.52-4.81-0.34-7.41c0.01-0.18-0.05-0.36-0.17-0.49c-0.12-0.13-0.3-0.21-0.48-0.21
					h-1.7l-0.01,0.27c-0.15,3.57-0.22,7.22,0.78,9.21c1.01,2.03,3.16,2.56,4.44,2.56c0.09,0,0.17,0,0.25-0.01
					c1.11-0.06,2.01-0.33,2.76-0.84c-0.07,0.3-0.14,0.6-0.21,0.89c-0.81,3.34-2.19,3.97-7.36,3.39l-0.36-0.04l0.22,1.37
					c0.06,0.35,0.35,0.62,0.7,0.65c0.83,0.07,1.58,0.11,2.26,0.11c4.15,0,5.84-1.33,6.59-4.78c0.72-3.29,1.5-7.49,2.33-12.46
					l0.05-0.32H54.29z"/>
				<path class="st6" d="M10.34,38.37c0.32,0,0.59-0.23,0.64-0.54l2.07-11.89c0.32-1.87,1.95-3.24,3.85-3.24h3.46
					c0.89,0,1.75,0.35,2.2,0.88c0.49,0.59,0.68,1.39,0.53,2.25c-0.33,1.88-2.32,3.52-4.25,3.52h-4.19c-0.32,0-0.59,0.23-0.64,0.54
					l-0.28,1.65h5.37c2.95,0,5.77-2.39,6.29-5.33c0.27-1.52-0.09-2.95-1.01-4.05c-0.9-1.08-2.22-1.67-3.72-1.67l-4.01,0
					c-2.79,0-5.18,2-5.66,4.75L8.66,38.37H10.34z"/>
			</g>
		</g>
		<g>
			<g>
				<path class="st2" d="M107.02,17.96c-1.28,0-2.39-0.49-3.13-1.37c-0.76-0.91-1.05-2.13-0.82-3.44c0.48-2.74,3.1-4.97,5.84-4.97
					c1.28,0,2.39,0.49,3.13,1.37c0.76,0.91,1.05,2.13,0.82,3.44C112.38,15.73,109.76,17.96,107.02,17.96z"/>
			</g>
			<g>
				<polygon class="st1" points="98.4,20.17 96.24,32.4 89.41,20.17 85.4,20.17 82.1,38.89 86.11,38.89 88.13,27.44 95.09,38.89 
					99.11,38.89 102.41,20.17 				"/>
				<path class="st1" d="M77.91,20.17L76.07,30.6c-0.46,2.59-2.78,5.18-5.59,5.18c-1.08,0-1.88-0.4-2.49-1.13
					c-0.63-0.76-1.09-1.81-0.81-3.34l1.97-11.15h-4.19L63.11,30.6c-0.41,2.32,0.17,4.61,1.58,6.3c1.41,1.68,3.47,2.61,5.79,2.61
					c4.53,0,8.86-3.67,9.66-8.19l1.97-11.15H77.91z"/>
				<path class="st1" d="M107.06,20.24c-0.09,0-0.18,0.01-0.27,0.01c-0.32,0-0.64-0.02-0.94-0.06l-3.3,18.71h4.01l3.41-19.34
					C109.06,19.96,108.07,20.2,107.06,20.24z"/>
			</g>
		</g>
	</g>
</g>
<g class="st4">
	<path class="st7" d="M87.57,34.39v-1.83c0-0.16-0.11-0.23-0.24-0.23h-6.3h-0.26c-0.07,0-0.06-0.08-0.02-0.11
		c0.01-0.01,0.03-0.03,0.05-0.05c0.01-0.01,0.01-0.01,0.02-0.02c1.67-1.91,3.33-3.12,3.93-3.56c0.1-0.08,0.25-0.15,0.24-0.27
		c-0.01-0.12-0.11-0.11-0.19-0.11c-1.15,0-3.11,0-4.27,0c-0.35,0-0.59,0.04-0.74,0.12c-0.65,0.34-1.43,1.11-1.86,1.49
		c-0.44,0.39-1.59,1.57-2.48,2.28c-0.11,0.09-0.27,0.01-0.27-0.13v-4.91c0-0.09,0.07-0.16,0.16-0.16h10.03
		c0.19-0.03,0.17-0.22,0.17-0.22v-1.65c0-0.15-0.1-0.2-0.22-0.2h-9.98c-0.09,0-0.16-0.07-0.16-0.16v-2.32
		c0-0.09,0.07-0.16,0.16-0.16h11.69c0.52,0,0.82-0.57,0.54-1l-4.2-6.28c-0.34-0.51-0.92-0.82-1.54-0.82h-0.3h-3.87h-9.09h-3.75
		h-0.03c-0.85,0-1.65,0.44-2.1,1.16l-4.81,7.62c-0.07,0.11,0.01,0.25,0.14,0.25h3.21c1.03,0,1.98-0.53,2.53-1.4l3.51-5.56
		c0.06-0.09,0.16-0.15,0.27-0.15h11.25c0.11,0,0.21,0.05,0.27,0.14l2.32,3.47c0.07,0.11-0.01,0.25-0.13,0.25H65.9
		c-0.29,0-0.31,0.1-0.21,0.29c0.1,0.19,0.38,1.17,0.42,1.66c0.03,0.31,0.16,0.36,0.31,0.36H71c0.09,0,0.16,0.07,0.16,0.16v2.32
		c0,0.09-0.07,0.16-0.16,0.16H60.7c-0.26,0-0.28,0.09-0.19,0.26c0.09,0.18,0.35,1.06,0.38,1.5c0.02,0.26,0.16,0.32,0.28,0.32H71
		c0.09,0,0.16,0.07,0.16,0.16v4.91c0,0.14-0.16,0.21-0.26,0.13c-0.9-0.72-2.05-1.89-2.49-2.29c-0.43-0.39-1.2-1.15-1.85-1.49
		c-0.15-0.08-0.39-0.12-0.74-0.12c-1.15,0-3.12,0-4.27,0c-0.08,0-0.18-0.01-0.19,0.11c-0.01,0.12,0.14,0.19,0.24,0.27
		c0.59,0.44,2.25,1.64,3.93,3.56c0,0,0,0,0,0c0.02,0.02,0.04,0.05,0.07,0.07c0.04,0.04,0.04,0.11-0.02,0.11H65.3h-6.48
		c-0.29,0-0.31,0.1-0.21,0.29c0.1,0.19,0.39,1.17,0.42,1.66c0.02,0.33,0.18,0.36,0.31,0.36c7.03,0,28.03,0,28.03,0
		C87.59,34.6,87.57,34.39,87.57,34.39z"/>
	<g class="st5">
		<path class="st0" d="M1.49,13.96c0,0,0.12-0.14,0.32-0.14h4.5c0,0,0.16,0.05,0,0.2c0,0-4.56,3.79-6.22,5.15
			c-0.26,0.21-0.42,0.36-0.36,0.53c0.06,0.14,0.21,0.16,0.42,0.16h6.89c0,0,0.21,0,0.21,0.2c0,0,0,0.85,0,1.16
			c0,0.21-0.15,0.32-0.3,0.43c0,0-4.44,2.93-6.11,4.03c-0.04,0.03-0.22,0.13-0.18,0.25c0.03,0.1,0.13,0.12,0.29,0.12
			c1.45,0,5.82,0,5.82,0s0.27,0.06,0.11,0.42c-0.17,0.37-0.17,0.58-0.17,0.86c0,0,0,4.08,0,5.49c0,0.7-0.29,1.59-1.68,1.92
			c-1.89,0.36-5.11-0.64-6.41-0.69c-1.28-0.07-2.55,0.02-3.56,0.69c0,0-0.27,0.03-0.11-0.22c0.16-0.26,0.38-0.9,0.33-2.97
			c0,0,0-0.34,0.26-0.37c0.25-0.02,4.22-0.59,6.72,0.37c0.7,0.28,0.86-0.26,0.86-0.64v-2.8c0,0-0.05-0.22-0.26-0.22h-6.95
			c0,0-0.88,0.16-1.15-0.73c-0.28-0.95,0.47-1.32,0.74-1.49l5.4-3.81c0,0,0.06-0.16-0.2-0.16h-4.67c0,0-1.06,0.09-1.32-0.9
			c-0.22-0.86,0.2-1.59,0.63-1.86L1.49,13.96z"/>
		<path class="st0" d="M8.05,15.55h5.85c0,0,0.19-0.04,0.19-0.18v-0.17v-1.23c0,0-0.02-0.14,0.16-0.17h5.76c0,0,0.2-0.02,0.2,0.17
			v1.41c0,0,0,0.18,0.19,0.18h4.58c0,0,0.19-0.04,0.19,0.14v1.58c0,0,0,0.2-0.19,0.2h-7.39c0,0-0.21-0.04-0.37,0.2
			c0,0-3.34,3.87-3.48,4.05c-0.27,0.33-0.31,0.73,0.26,0.73h6.38c0,0,0.45,0.06,0.35-0.4L20.48,20c0,0-0.02-0.32,0.32-0.32h3.38
			c0,0,0.2-0.03,0.23,0.28c0.03,0.44,0.13,3.52,0.49,4.07c0,0,0.24,0.36-0.14,0.36h-3.53c0,0-0.19-0.02-0.19,0.21v7.54
			c0,0,0.01,0.42,0.4,0.42h5.06c0.14,0.01,0.25,0.16,0.01,0.3c-0.3,0.19-1.16,1.47-1.16,1.47s-0.16,0.24-0.4,0.24h-5.63
			c0,0-2.62,0.05-2.57-3.26c0,0-0.02-3.81,0-3.96c0.02-0.24-0.24-0.33-0.41-0.13c0,0-2.78,4.28-3.71,5.72
			c-0.41,0.64-1.11,1.7-2.81,1.68c-0.73-0.01-2.72,0-2.85,0c-0.15,0-0.31-0.17-0.09-0.29c1.2-0.65,2.75-3.52,5.02-6.78
			c1.09-1.58,1.69-1.54,2.61-1.54h1.97c0,0,0.17,0,0.22-0.25v-1.22c0,0,0-0.17-0.24-0.17H9.44c0,0-0.93,0.06-1.33-0.92
			c-0.32-0.79,0.17-1.44,0.46-1.72c1.06-1.06,2.91-2.99,3.9-3.98c0.13-0.13,0.07-0.33-0.18-0.33c-0.89,0-3.58,0-3.58,0
			s-0.28,0.04-0.31-0.23c-0.04-0.33-0.44-1.27-0.52-1.43C7.82,15.59,7.79,15.55,8.05,15.55"/>
	</g>
	<path class="st7" d="M27.87,22.79H54.6c0.18,0,0.32,0.08,0.32,0.29v2.38c0,0,0.03,0.28-0.24,0.32H28.55c0,0-0.37-0.01-0.4-0.46
		c-0.04-0.64-0.42-1.91-0.55-2.16C27.46,22.93,27.5,22.79,27.87,22.79"/>
	<g class="st5">
		<g>
			<g>
				<path class="st0" d="M114.26,25.47c-0.13,0-0.24,0.11-0.24,0.24v5.65c-0.06,3.29,2.55,3.24,2.55,3.24h3.72
					c0.23,0,0.4-0.24,0.4-0.24s0.99-1.27,1.29-1.46c0.24-0.14,0.14-0.29-0.01-0.3h-3.7c-0.39,0-0.4-0.42-0.4-0.42v-6.47
					c0-0.13-0.11-0.24-0.24-0.24H114.26z"/>
				<path class="st0" d="M109.02,34.28h3.01c0.13,0,0.24-0.11,0.24-0.24v-8.33c0-0.13-0.11-0.24-0.24-0.24h-3.01
					c-0.13,0-0.24,0.11-0.24,0.24v8.33C108.78,34.17,108.88,34.28,109.02,34.28z"/>
				<path class="st0" d="M100.26,28.39c0.23,0,0.23,0.17,0.1,0.29c-0.3,0.27-1.03,1.2-3.32,4c-1.26,1.54-1.7,1.87-2.73,1.87h-4.22
					c-0.13,0-0.21-0.22,0-0.35c0.57-0.36,3.17-2.98,4.52-4.81c0.8-1.06,1.28-1,2.06-1H100.26z"/>
				<path class="st0" d="M95.81,14.87h-4.81c0,0-0.18,0-0.2,0.11c-0.03,0.18,0.13,0.17,0.25,0.23c0.58,0.36,2.14,1.49,3.88,3.22
					c0.7,0.71,1.43,0.64,1.77,0.64h4.33c0.18,0,0.31-0.18,0.06-0.31c-0.94-0.51-2.39-2-2.95-2.43
					C97.59,15.9,96.49,14.87,95.81,14.87"/>
				<path class="st0" d="M95.81,21.63h-4.81c0,0-0.18,0-0.2,0.11c-0.03,0.18,0.13,0.17,0.25,0.23c0.58,0.36,2.14,1.49,3.88,3.22
					c0.7,0.71,1.43,0.64,1.77,0.64h4.33c0.18,0,0.31-0.18,0.06-0.31c-0.94-0.51-2.39-2-2.95-2.43
					C97.59,22.66,96.49,21.63,95.81,21.63"/>
			</g>
			<path class="st0" d="M106.97,25.46h-3.46c-0.13,0-0.24,0.11-0.24,0.24v1.19c0,0.75-0.06,4.78-3.34,7.22
				c-0.19,0.14-0.1,0.44,0.14,0.44h2.9c0.96,0,1.87-0.44,2.44-1.22c0.72-0.99,1.47-2.65,1.74-5.74c0.05-0.55,0.07-1.46,0.07-1.89
				C107.21,25.56,107.11,25.46,106.97,25.46z"/>
		</g>
		<path class="st0" d="M119.07,15.55h-5.82c-0.19,0-0.19-0.18-0.19-0.18v-1.4c0-0.19-0.2-0.17-0.2-0.17h-5.73
			c-0.18,0.02-0.16,0.17-0.16,0.17v1.23v0.17c0,0.14-0.19,0.18-0.19,0.18h-6.67c-0.25,0-0.23,0.05-0.15,0.21
			c0.08,0.16,0.47,1.1,0.51,1.42c0.03,0.27,0.31,0.23,0.31,0.23h4.41c0.38,0,0.31,0.21,0.17,0.32c0,0-3.5,2.93-4.73,3.96
			c-0.31,0.26-0.78,0.94-0.46,1.72c0.39,0.97,1.32,0.94,1.32,0.94h17.36C119.23,24.37,119,24,119,24c-0.35-0.55-0.46-3.62-0.49-4.05
			c-0.03-0.31-0.23-0.28-0.23-0.28h-3.36c-0.29,0-0.32,0.31-0.32,0.31l0.24,1.77c0.09,0.45-0.35,0.39-0.35,0.39h-8.45
			c-0.3,0.04-0.5-0.39-0.26-0.73c0.14-0.17,4.31-3.78,4.31-3.78c0.22-0.23,0.46-0.2,0.46-0.2h8.53c0.18,0,0.18-0.2,0.18-0.2v-1.57
			C119.26,15.51,119.07,15.55,119.07,15.55z"/>
	</g>
</g>
<g class="st4">
	<path class="st8" d="M87.57,34.39v-1.83c0-0.16-0.11-0.23-0.24-0.23h-6.3h-0.26c-0.07,0-0.06-0.08-0.02-0.11
		c0.01-0.01,0.03-0.03,0.05-0.05c0.01-0.01,0.01-0.01,0.02-0.02c1.67-1.91,3.33-3.12,3.93-3.56c0.1-0.08,0.25-0.15,0.24-0.27
		c-0.01-0.12-0.11-0.11-0.19-0.11c-1.15,0-3.11,0-4.27,0c-0.35,0-0.59,0.04-0.74,0.12c-0.65,0.34-1.43,1.11-1.86,1.49
		c-0.44,0.39-1.59,1.57-2.48,2.28c-0.11,0.09-0.27,0.01-0.27-0.13v-4.91c0-0.09,0.07-0.16,0.16-0.16h10.03
		c0.19-0.03,0.17-0.22,0.17-0.22v-1.65c0-0.15-0.1-0.2-0.22-0.2h-9.98c-0.09,0-0.16-0.07-0.16-0.16v-2.32
		c0-0.09,0.07-0.16,0.16-0.16h11.69c0.52,0,0.82-0.57,0.54-1l-4.2-6.28c-0.34-0.51-0.92-0.82-1.54-0.82h-0.3h-3.87h-9.09h-3.75
		h-0.03c-0.85,0-1.65,0.44-2.1,1.16l-4.81,7.62c-0.07,0.11,0.01,0.25,0.14,0.25h3.21c1.03,0,1.98-0.53,2.53-1.4l3.51-5.56
		c0.06-0.09,0.16-0.15,0.27-0.15h11.25c0.11,0,0.21,0.05,0.27,0.14l2.32,3.47c0.07,0.11-0.01,0.25-0.13,0.25H65.9
		c-0.29,0-0.31,0.1-0.21,0.29c0.1,0.19,0.38,1.17,0.42,1.66c0.03,0.31,0.16,0.36,0.31,0.36H71c0.09,0,0.16,0.07,0.16,0.16v2.32
		c0,0.09-0.07,0.16-0.16,0.16H60.7c-0.26,0-0.28,0.09-0.19,0.26c0.09,0.18,0.35,1.06,0.38,1.5c0.02,0.26,0.16,0.32,0.28,0.32H71
		c0.09,0,0.16,0.07,0.16,0.16v4.91c0,0.14-0.16,0.21-0.26,0.13c-0.9-0.72-2.05-1.89-2.49-2.29c-0.43-0.39-1.2-1.15-1.85-1.49
		c-0.15-0.08-0.39-0.12-0.74-0.12c-1.15,0-3.12,0-4.27,0c-0.08,0-0.18-0.01-0.19,0.11c-0.01,0.12,0.14,0.19,0.24,0.27
		c0.59,0.44,2.25,1.64,3.93,3.56c0,0,0,0,0,0c0.02,0.02,0.04,0.05,0.07,0.07c0.04,0.04,0.04,0.11-0.02,0.11H65.3h-6.48
		c-0.29,0-0.31,0.1-0.21,0.29c0.1,0.19,0.39,1.17,0.42,1.66c0.02,0.33,0.18,0.36,0.31,0.36c7.03,0,28.03,0,28.03,0
		C87.59,34.6,87.57,34.39,87.57,34.39z"/>
	<g class="st5">
		<path class="st1" d="M1.49,13.96c0,0,0.12-0.14,0.32-0.14h4.5c0,0,0.16,0.05,0,0.2c0,0-4.56,3.79-6.22,5.15
			c-0.26,0.21-0.42,0.37-0.36,0.53c0.06,0.14,0.21,0.16,0.42,0.16h6.89c0,0,0.21,0,0.21,0.2c0,0,0,0.85,0,1.16
			c0,0.21-0.15,0.32-0.3,0.43c0,0-4.44,2.93-6.11,4.03c-0.04,0.03-0.22,0.13-0.18,0.25c0.03,0.1,0.13,0.12,0.29,0.12
			c1.45,0,5.82,0,5.82,0s0.27,0.06,0.11,0.42c-0.17,0.37-0.17,0.58-0.17,0.86c0,0,0,4.08,0,5.49c0,0.7-0.29,1.59-1.68,1.92
			c-1.89,0.36-5.11-0.64-6.41-0.69c-1.28-0.07-2.55,0.02-3.56,0.69c0,0-0.27,0.03-0.11-0.22c0.16-0.26,0.38-0.9,0.33-2.97
			c0,0,0-0.34,0.26-0.37c0.25-0.02,4.22-0.59,6.72,0.37c0.7,0.28,0.86-0.26,0.86-0.64v-2.8c0,0-0.05-0.22-0.26-0.22h-6.95
			c0,0-0.88,0.16-1.15-0.73c-0.28-0.95,0.47-1.32,0.74-1.49l5.4-3.81c0,0,0.06-0.16-0.2-0.16h-4.67c0,0-1.06,0.09-1.32-0.9
			c-0.22-0.86,0.2-1.59,0.63-1.86L1.49,13.96z"/>
		<path class="st1" d="M8.05,15.55h5.85c0,0,0.19-0.04,0.19-0.18v-0.17v-1.23c0,0-0.02-0.14,0.16-0.17h5.76c0,0,0.2-0.02,0.2,0.17
			v1.41c0,0,0,0.18,0.19,0.18h4.58c0,0,0.19-0.04,0.19,0.14v1.58c0,0,0,0.2-0.19,0.2h-7.39c0,0-0.21-0.04-0.37,0.2
			c0,0-3.34,3.87-3.48,4.05c-0.27,0.33-0.31,0.73,0.26,0.73h6.38c0,0,0.45,0.06,0.35-0.4L20.48,20c0,0-0.02-0.32,0.32-0.32h3.38
			c0,0,0.2-0.03,0.23,0.28c0.03,0.44,0.13,3.52,0.49,4.07c0,0,0.24,0.36-0.14,0.36h-3.53c0,0-0.19-0.02-0.19,0.21v7.54
			c0,0,0.01,0.42,0.4,0.42h5.06c0.14,0.01,0.25,0.16,0.01,0.3c-0.3,0.19-1.16,1.47-1.16,1.47s-0.16,0.24-0.4,0.24h-5.63
			c0,0-2.62,0.05-2.57-3.26c0,0-0.02-3.81,0-3.96c0.02-0.24-0.24-0.33-0.41-0.13c0,0-2.78,4.28-3.71,5.72
			c-0.41,0.64-1.11,1.7-2.81,1.68c-0.73-0.01-2.72,0-2.85,0c-0.15,0-0.31-0.17-0.09-0.29c1.2-0.65,2.75-3.52,5.02-6.78
			c1.09-1.58,1.69-1.54,2.61-1.54h1.97c0,0,0.17,0,0.22-0.25v-1.22c0,0,0-0.17-0.24-0.17H9.44c0,0-0.93,0.06-1.33-0.92
			c-0.32-0.79,0.17-1.44,0.46-1.72c1.06-1.06,2.91-2.99,3.9-3.98c0.13-0.13,0.07-0.33-0.18-0.33c-0.89,0-3.58,0-3.58,0
			s-0.28,0.04-0.31-0.23c-0.04-0.33-0.44-1.27-0.52-1.43C7.82,15.59,7.79,15.55,8.05,15.55"/>
	</g>
	<path class="st8" d="M27.87,22.79H54.6c0.18,0,0.32,0.08,0.32,0.29v2.38c0,0,0.03,0.28-0.24,0.32H28.55c0,0-0.37-0.01-0.4-0.46
		c-0.04-0.64-0.42-1.91-0.55-2.16C27.46,22.93,27.5,22.79,27.87,22.79"/>
	<g class="st5">
		<g>
			<g>
				<path class="st1" d="M114.26,25.47c-0.13,0-0.24,0.11-0.24,0.24v5.65c-0.06,3.29,2.55,3.24,2.55,3.24h3.72
					c0.23,0,0.4-0.24,0.4-0.24s0.99-1.27,1.29-1.46c0.24-0.14,0.14-0.29-0.01-0.3h-3.7c-0.39,0-0.4-0.42-0.4-0.42v-6.47
					c0-0.13-0.11-0.24-0.24-0.24H114.26z"/>
				<path class="st1" d="M109.02,34.28h3.01c0.13,0,0.24-0.11,0.24-0.24v-8.33c0-0.13-0.11-0.24-0.24-0.24h-3.01
					c-0.13,0-0.24,0.11-0.24,0.24v8.33C108.78,34.17,108.88,34.28,109.02,34.28z"/>
				<path class="st1" d="M100.26,28.39c0.23,0,0.23,0.17,0.1,0.29c-0.3,0.27-1.03,1.2-3.32,4c-1.26,1.54-1.7,1.87-2.73,1.87h-4.22
					c-0.13,0-0.21-0.22,0-0.35c0.57-0.36,3.17-2.98,4.52-4.81c0.8-1.06,1.28-1,2.06-1H100.26z"/>
				<path class="st1" d="M95.81,14.87h-4.81c0,0-0.18,0-0.2,0.11c-0.03,0.18,0.13,0.17,0.25,0.23c0.58,0.36,2.14,1.49,3.88,3.22
					c0.7,0.71,1.43,0.64,1.77,0.64h4.33c0.18,0,0.31-0.18,0.06-0.31c-0.94-0.51-2.39-2-2.95-2.43
					C97.59,15.9,96.49,14.87,95.81,14.87"/>
				<path class="st1" d="M95.81,21.63h-4.81c0,0-0.18,0-0.2,0.11c-0.03,0.18,0.13,0.17,0.25,0.23c0.58,0.36,2.14,1.49,3.88,3.22
					c0.7,0.71,1.43,0.64,1.77,0.64h4.33c0.18,0,0.31-0.18,0.06-0.31c-0.94-0.51-2.39-2-2.95-2.43
					C97.59,22.66,96.49,21.63,95.81,21.63"/>
			</g>
			<path class="st1" d="M106.97,25.46h-3.46c-0.13,0-0.24,0.11-0.24,0.24v1.19c0,0.75-0.06,4.78-3.34,7.22
				c-0.19,0.14-0.1,0.44,0.14,0.44h2.9c0.96,0,1.87-0.44,2.44-1.22c0.72-0.99,1.47-2.65,1.74-5.74c0.05-0.55,0.07-1.46,0.07-1.89
				C107.21,25.56,107.11,25.46,106.97,25.46z"/>
		</g>
		<path class="st1" d="M119.07,15.55h-5.82c-0.19,0-0.19-0.18-0.19-0.18v-1.4c0-0.19-0.2-0.17-0.2-0.17h-5.73
			c-0.18,0.02-0.16,0.17-0.16,0.17v1.23v0.17c0,0.14-0.19,0.18-0.19,0.18h-6.67c-0.25,0-0.23,0.05-0.15,0.21
			c0.08,0.16,0.47,1.1,0.51,1.42c0.03,0.27,0.31,0.23,0.31,0.23h4.41c0.38,0,0.31,0.21,0.17,0.32c0,0-3.5,2.93-4.73,3.96
			c-0.31,0.26-0.78,0.94-0.46,1.72c0.39,0.97,1.32,0.94,1.32,0.94h17.36C119.23,24.37,119,24,119,24c-0.35-0.55-0.46-3.62-0.49-4.05
			c-0.03-0.31-0.23-0.28-0.23-0.28h-3.36c-0.29,0-0.32,0.31-0.32,0.31l0.24,1.77c0.09,0.45-0.35,0.39-0.35,0.39h-8.45
			c-0.3,0.04-0.5-0.39-0.26-0.73c0.14-0.17,4.31-3.78,4.31-3.78c0.22-0.23,0.46-0.2,0.46-0.2h8.53c0.18,0,0.18-0.2,0.18-0.2v-1.57
			C119.26,15.51,119.07,15.55,119.07,15.55z"/>
	</g>
</g>
</svg>
