<svg xmlns="http://www.w3.org/2000/svg" width="40.225" height="181" viewBox="0 0 40.225 181">
  <g id="noun-more" transform="translate(-303.33 -70.002)">
    <path id="Path_1" data-name="Path 1" d="M303.33,90.114c0-9.481,0-14.222,2.946-17.166S313.961,70,323.442,70s14.22,0,17.166,2.946,2.946,7.685,2.946,17.166,0,14.22-2.946,17.166-7.685,2.944-17.166,2.944-14.22,0-17.166-2.944S303.33,99.593,303.33,90.114Z" transform="translate(0 0)" fill="#6c757d"/>
    <path id="Path_2" data-name="Path 2" d="M303.33,253.444c0-9.481,0-14.22,2.946-17.166s7.685-2.946,17.166-2.946,14.22,0,17.166,2.946,2.946,7.685,2.946,17.166,0,14.22-2.946,17.166-7.685,2.946-17.166,2.946-14.22,0-17.166-2.946S303.33,262.925,303.33,253.444Z" transform="translate(0 -92.942)" fill="#6c757d"/>
    <path id="Path_3" data-name="Path 3" d="M306.28,399.612c-2.946,2.946-2.946,7.687-2.946,17.166s0,14.221,2.946,17.166,7.685,2.946,17.166,2.946,14.22,0,17.166-2.946,2.946-7.685,2.946-17.166,0-14.22-2.946-17.166-7.685-2.944-17.166-2.944S309.226,396.668,306.28,399.612Z" transform="translate(-0.002 -185.888)" fill="#6c757d"/>
  </g>
</svg>

